<svg version="1.1" xmlns="http://www.w3.org/2000/svg" viewBox="0 0 408 404" width="816" height="808">
  <!-- svg-source:excalidraw -->
  
  <defs>
    <style class="style-fonts">
      @font-face {
        font-family: "Virgil";
        src: url("https://excalidraw.com/Virgil.woff2");
      }
      @font-face {
        font-family: "Cascadia";
        src: url("https://excalidraw.com/Cascadia.woff2");
      }
      @font-face {
        font-family: "Assistant";
        src: url("https://excalidraw.com/Assistant-Regular.woff2");
      }
    </style>
    
  </defs>
  <rect x="0" y="0" width="408" height="404" fill="#ffffff"></rect><g stroke-linecap="round" transform="translate(10 10) rotate(0 194 192)"><path d="M32 0 C153.45 1.35, 273.01 -0.04, 356 0 M32 0 C105.38 0.66, 177.13 1.12, 356 0 M356 0 C377.81 -0.41, 387.85 9.46, 388 32 M356 0 C379.28 -1.35, 388.12 11.83, 388 32 M388 32 C390.58 109.47, 389.25 186.01, 388 352 M388 32 C385.83 100.63, 386.67 169.89, 388 352 M388 352 C387.22 375.27, 377.21 382.85, 356 384 M388 352 C390.2 374.7, 378.74 381.8, 356 384 M356 384 C230.96 384.73, 107.68 385.32, 32 384 M356 384 C290.7 385.85, 225.56 386.48, 32 384 M32 384 C11.27 384.67, -0.75 375.2, 0 352 M32 384 C9.74 384.72, 1.83 374.95, 0 352 M0 352 C0.54 257.57, 1.18 164.95, 0 32 M0 352 C2.16 244.57, 2.59 135.92, 0 32 M0 32 C-0.45 11.99, 9.81 1.99, 32 0 M0 32 C0.92 11.86, 11.05 -0.18, 32 0" stroke="#1e1e1e" stroke-width="2" fill="none"></path></g><g transform="translate(76.03447560880375 279.7903702504607) rotate(0 134.58151245117188 16.580064875164226)"><text x="0" y="0" font-family="Virgil, Segoe UI Emoji" font-size="26.528103800262773px" fill="#1e1e1e" text-anchor="start" style="white-space: pre;" direction="ltr" dominant-baseline="text-before-edge">Image Not Available</text></g><g stroke-linecap="round" transform="translate(191.81365528655562 129.04821194352093) rotate(0 21.576171542164303 20.80559398708698)"><path d="M27.28 0.13 C31.51 0.94, 36.29 5.19, 38.9 8.9 C41.52 12.6, 43.25 17.92, 42.97 22.35 C42.69 26.79, 40.33 32.32, 37.21 35.51 C34.08 38.7, 28.85 41.1, 24.21 41.51 C19.57 41.91, 13.28 40.49, 9.34 37.96 C5.4 35.44, 1.87 30.55, 0.58 26.35 C-0.71 22.15, -0.41 16.76, 1.6 12.77 C3.61 8.78, 8.31 4.35, 12.63 2.41 C16.95 0.48, 25.05 1.35, 27.53 1.17 C30.02 1, 27.58 1.02, 27.54 1.35 M21.52 -0.45 C25.92 -0.68, 31.09 2.34, 34.52 5.18 C37.95 8.01, 41.09 12.24, 42.11 16.56 C43.13 20.88, 42.85 27.07, 40.64 31.09 C38.43 35.1, 33.13 38.98, 28.84 40.63 C24.55 42.27, 19.24 42.4, 14.89 40.94 C10.54 39.48, 5.06 35.73, 2.74 31.88 C0.41 28.02, 0.17 22.23, 0.94 17.8 C1.72 13.36, 4.11 8.18, 7.39 5.28 C10.68 2.37, 18.42 1.26, 20.65 0.38 C22.88 -0.5, 20.78 -0.4, 20.79 0" stroke="none" stroke-width="0" fill="#ffffff"></path><path d="M22.93 0.17 C27.32 0.02, 33.12 2.19, 36.39 5.11 C39.65 8.03, 41.95 13.14, 42.51 17.71 C43.08 22.29, 42.2 28.67, 39.76 32.53 C37.31 36.4, 32.24 39.57, 27.82 40.9 C23.4 42.22, 17.46 42.26, 13.23 40.47 C9.01 38.68, 4.51 34.15, 2.46 30.16 C0.4 26.16, -0.07 20.76, 0.93 16.47 C1.92 12.18, 4.67 7.18, 8.42 4.44 C12.16 1.7, 20.93 0.71, 23.39 0.05 C25.85 -0.61, 23.3 0.17, 23.17 0.5 M19.9 0.53 C24.27 -0.03, 30.83 1.65, 34.62 4.26 C38.42 6.87, 41.64 11.98, 42.66 16.18 C43.68 20.38, 42.8 25.53, 40.74 29.46 C38.68 33.39, 34.48 37.81, 30.28 39.76 C26.08 41.72, 19.99 42.39, 15.54 41.19 C11.08 39.98, 5.98 36.42, 3.54 32.53 C1.09 28.63, 0.23 22.3, 0.86 17.79 C1.49 13.28, 4.18 8.46, 7.33 5.47 C10.49 2.47, 17.65 0.71, 19.8 -0.2 C21.95 -1.11, 20.01 -0.4, 20.23 0.01" stroke="#1e1e1e" stroke-width="1" fill="none"></path></g><g stroke-linecap="round" transform="translate(196.74705295579315 147.78995930049143) rotate(0 6.757886947487805 6.5701678656131435)"><path d="M3.77 0.46 C5.3 0.23, 8.48 1.02, 10.06 1.38 C11.65 1.74, 12.89 1.38, 13.28 2.64 C13.68 3.9, 12.87 7.4, 12.43 8.93 C12 10.46, 11.6 11.17, 10.67 11.82 C9.74 12.46, 8.39 12.91, 6.88 12.78 C5.37 12.65, 2.82 11.86, 1.62 11.05 C0.41 10.25, -0.33 9.21, -0.37 7.96 C-0.41 6.72, 0.45 4.97, 1.37 3.58 C2.29 2.2, 4.08 0.16, 5.15 -0.34 C6.22 -0.84, 7.47 0.32, 7.76 0.57 M8.71 2.05 C10.44 2.58, 13.88 2.5, 14.42 3.66 C14.96 4.82, 12.44 7.48, 11.95 9 C11.46 10.52, 12.37 11.98, 11.48 12.77 C10.58 13.55, 8.13 13.9, 6.55 13.71 C4.97 13.51, 2.93 12.52, 1.99 11.58 C1.06 10.64, 0.86 9.58, 0.96 8.06 C1.05 6.55, 1.96 3.73, 2.58 2.49 C3.2 1.24, 3.67 0.87, 4.67 0.62 C5.66 0.36, 7.52 0.95, 8.55 0.95 C9.58 0.96, 10.74 0.67, 10.84 0.63" stroke="none" stroke-width="0" fill="#ffffff"></path><path d="M3.77 1.16 C4.94 0.61, 6.33 0.6, 7.8 0.78 C9.27 0.95, 11.54 1.12, 12.58 2.22 C13.62 3.32, 14.3 5.75, 14.05 7.36 C13.79 8.97, 12.21 11.06, 11.05 11.9 C9.88 12.75, 8.53 12.37, 7.08 12.42 C5.62 12.48, 3.47 12.99, 2.33 12.23 C1.18 11.48, 0.45 9.27, 0.22 7.88 C-0.02 6.49, 0.12 5.25, 0.9 3.9 C1.69 2.54, 4.25 0.5, 4.92 -0.27 C5.59 -1.04, 4.88 -0.98, 4.91 -0.7 M7.44 1.69 C8.97 2.19, 12.56 2.43, 13.76 3.26 C14.96 4.09, 15.22 5.26, 14.63 6.66 C14.05 8.07, 11.54 10.42, 10.26 11.67 C8.98 12.92, 8.13 14.07, 6.95 14.16 C5.78 14.25, 4.24 13.38, 3.2 12.21 C2.17 11.04, 0.91 8.77, 0.74 7.13 C0.57 5.49, 1.55 3.49, 2.18 2.36 C2.8 1.23, 3.22 0.61, 4.48 0.35 C5.73 0.08, 8.76 0.67, 9.7 0.75 C10.64 0.83, 10.51 0.71, 10.12 0.83" stroke="#1e1e1e" stroke-width="1" fill="none"></path></g><g stroke-linecap="round" transform="translate(212.00852489281442 135.9841036854457) rotate(0 6.757886947487805 6.5701678656131435)"><path d="M8.06 0.68 C9.34 1, 10.77 2.4, 11.65 3.3 C12.53 4.2, 13.13 4.83, 13.31 6.08 C13.49 7.33, 13.49 9.65, 12.71 10.79 C11.93 11.94, 10.14 12.72, 8.64 12.95 C7.14 13.19, 5.24 12.82, 3.71 12.21 C2.17 11.6, -0.01 10.78, -0.58 9.28 C-1.15 7.79, -0.34 4.58, 0.28 3.22 C0.91 1.85, 1.65 1.5, 3.16 1.09 C4.67 0.69, 8.16 0.68, 9.34 0.79 C10.53 0.9, 10.3 1.69, 10.24 1.75 M8.16 -0.77 C9.55 -0.91, 11.53 -0.74, 12.34 0.69 C13.15 2.12, 12.89 5.97, 13.02 7.79 C13.15 9.61, 13.75 10.61, 13.11 11.63 C12.48 12.64, 10.74 13.93, 9.21 13.87 C7.69 13.82, 5.27 12.22, 3.98 11.29 C2.69 10.35, 1.99 9.6, 1.47 8.25 C0.96 6.91, 0.46 4.6, 0.88 3.22 C1.31 1.85, 3 0.65, 4.03 0 C5.05 -0.65, 6.36 -0.54, 7.03 -0.68 C7.7 -0.81, 7.8 -1, 8.05 -0.83" stroke="none" stroke-width="0" fill="#ffffff"></path><path d="M5.27 0.62 C6.71 0.1, 8.72 -0.81, 9.9 -0.19 C11.09 0.42, 11.73 2.75, 12.37 4.29 C13.02 5.82, 13.95 7.58, 13.78 9 C13.6 10.41, 12.71 12.14, 11.32 12.79 C9.93 13.45, 7.1 13, 5.44 12.91 C3.77 12.81, 2.07 13.2, 1.33 12.23 C0.59 11.26, 1.15 8.57, 0.98 7.07 C0.8 5.57, -0.63 4.34, 0.26 3.25 C1.15 2.16, 5.21 0.96, 6.3 0.52 C7.39 0.07, 6.89 0.46, 6.81 0.57 M8.85 -0.38 C10.05 -0.47, 12.19 0.23, 12.98 1.7 C13.78 3.17, 13.95 6.9, 13.62 8.45 C13.29 10, 12.21 10.24, 11 10.99 C9.79 11.74, 7.83 12.8, 6.34 12.96 C4.86 13.12, 3.12 12.63, 2.07 11.96 C1.02 11.3, 0.17 10.37, 0.05 8.96 C-0.06 7.55, 0.55 4.67, 1.38 3.5 C2.2 2.33, 3.8 2.52, 5 1.94 C6.2 1.36, 8.12 0.25, 8.59 0.03 C9.06 -0.19, 7.82 0.48, 7.84 0.63" stroke="#1e1e1e" stroke-width="1" fill="none"></path></g><g transform="translate(211.3918101642821 146.8761970960059) rotate(25.85670289326958 -0.750876327498645 1.3140335731226287)" stroke="none"><path fill="#1e1e1e" d="M 1.48,0.63 Q 1.48,0.63 0.83,1.80 0.18,2.97 0.15,3.18 0.12,3.39 0.03,3.58 -0.06,3.77 -0.21,3.92 -0.36,4.07 -0.55,4.16 -0.75,4.26 -0.96,4.28 -1.17,4.31 -1.38,4.27 -1.58,4.23 -1.77,4.12 -1.95,4.02 -2.09,3.86 -2.23,3.70 -2.32,3.50 -2.40,3.31 -2.41,3.09 -2.43,2.88 -2.38,2.68 -2.32,2.47 -2.21,2.29 -2.09,2.11 -1.93,1.98 -1.76,1.85 -1.56,1.78 -1.36,1.71 -1.15,1.70 -0.93,1.70 -0.73,1.76 -0.53,1.83 -0.36,1.95 -0.19,2.08 -0.06,2.25 0.05,2.42 0.11,2.63 0.17,2.83 0.16,3.04 0.16,3.26 0.08,3.45 0.01,3.65 -0.12,3.82 -0.25,3.98 -0.43,4.10 -0.61,4.21 -0.82,4.26 -1.02,4.31 -1.24,4.29 -1.45,4.27 -1.64,4.19 -1.84,4.10 -1.99,3.96 -2.15,3.81 -2.25,3.63 -2.36,3.44 -2.40,3.23 -2.43,3.02 -2.43,3.02 -2.43,3.02 -1.96,1.19 -1.48,-0.63 -1.38,-0.80 -1.28,-0.97 -1.15,-1.11 -1.01,-1.25 -0.85,-1.35 -0.68,-1.45 -0.50,-1.52 -0.31,-1.58 -0.12,-1.59 0.06,-1.61 0.26,-1.58 0.45,-1.54 0.63,-1.47 0.81,-1.39 0.96,-1.27 1.12,-1.16 1.24,-1.01 1.36,-0.85 1.44,-0.68 1.53,-0.50 1.57,-0.31 1.60,-0.12 1.60,0.06 1.59,0.26 1.53,0.44 1.48,0.63 1.48,0.63 L 1.48,0.63 Z"></path></g><g transform="translate(218.90324226153393 145.3936687331992) rotate(0 0.00004999999998744897 0.00004999999998744897)" stroke="none"><path fill="#1e1e1e" d="M 2.12,-2.12 Q 2.12,-2.12 2.40,-1.73 2.69,-1.33 2.83,-0.87 2.97,-0.40 2.96,0.08 2.95,0.56 2.78,1.02 2.61,1.47 2.31,1.85 2.00,2.23 1.59,2.49 1.18,2.76 0.71,2.87 0.24,2.99 -0.24,2.95 -0.72,2.91 -1.17,2.72 -1.61,2.53 -1.98,2.20 -2.34,1.88 -2.58,1.45 -2.82,1.03 -2.91,0.55 -3.00,0.08 -2.93,-0.40 -2.87,-0.88 -2.65,-1.31 -2.44,-1.75 -2.09,-2.09 -1.75,-2.44 -1.31,-2.65 -0.88,-2.87 -0.39,-2.93 0.08,-3.00 0.55,-2.91 1.03,-2.82 1.46,-2.58 1.88,-2.34 2.20,-1.97 2.53,-1.61 2.72,-1.17 2.91,-0.72 2.95,-0.23 2.99,0.24 2.87,0.71 2.76,1.18 2.49,1.59 2.23,2.00 1.85,2.31 1.47,2.61 1.02,2.78 0.56,2.95 0.07,2.96 -0.40,2.97 -0.87,2.83 -1.33,2.69 -1.73,2.40 -2.12,2.12 -2.12,2.12 -2.12,2.12 -2.34,1.83 -2.57,1.55 -2.72,1.22 -2.86,0.89 -2.93,0.53 -2.99,0.18 -2.97,-0.18 -2.95,-0.54 -2.84,-0.88 -2.74,-1.23 -2.55,-1.54 -2.36,-1.85 -2.10,-2.10 -1.85,-2.36 -1.54,-2.55 -1.23,-2.74 -0.88,-2.84 -0.54,-2.95 -0.18,-2.97 0.18,-2.99 0.53,-2.93 0.89,-2.86 1.22,-2.72 1.55,-2.57 1.83,-2.34 2.12,-2.12 2.12,-2.12 L 2.12,-2.12 Z"></path></g><g transform="translate(206.62433350275205 155.135836698491) rotate(0 -0.20427455179986964 0)" stroke="none"><path fill="#1e1e1e" d="M -0.40,3.00 Q -0.40,3.00 -0.88,2.92 -1.36,2.84 -1.79,2.62 -2.22,2.39 -2.56,2.03 -2.89,1.68 -3.10,1.24 -3.30,0.80 -3.35,0.32 -3.40,-0.16 -3.30,-0.63 -3.20,-1.11 -2.94,-1.52 -2.69,-1.94 -2.32,-2.26 -1.95,-2.57 -1.50,-2.75 -1.05,-2.93 -0.56,-2.96 -0.08,-2.98 0.38,-2.85 0.85,-2.72 1.25,-2.45 1.65,-2.18 1.95,-1.79 2.24,-1.40 2.40,-0.94 2.55,-0.48 2.55,0.00 2.55,0.48 2.40,0.94 2.24,1.40 1.95,1.79 1.65,2.18 1.25,2.45 0.85,2.72 0.38,2.85 -0.08,2.98 -0.56,2.96 -1.05,2.93 -1.50,2.75 -1.95,2.57 -2.32,2.25 -2.69,1.94 -2.95,1.52 -3.20,1.11 -3.30,0.63 -3.40,0.16 -3.35,-0.32 -3.30,-0.80 -3.09,-1.24 -2.89,-1.68 -2.56,-2.04 -2.22,-2.39 -1.79,-2.62 -1.36,-2.84 -0.88,-2.92 -0.40,-3.00 -0.40,-3.00 -0.40,-3.00 -0.04,-3.01 0.32,-3.01 0.67,-2.93 1.03,-2.85 1.36,-2.68 1.68,-2.52 1.96,-2.28 2.24,-2.04 2.45,-1.74 2.66,-1.44 2.79,-1.10 2.93,-0.76 2.98,-0.40 3.03,-0.04 2.99,0.32 2.95,0.68 2.82,1.02 2.70,1.37 2.50,1.67 2.29,1.97 2.02,2.22 1.75,2.47 1.43,2.64 1.11,2.82 0.76,2.91 0.40,3.00 -0.00,3.00 L -0.40,3.00 Z"></path></g><g stroke-linecap="round" transform="translate(222.02406876800558 163.819106670571) rotate(321.77956794515 26.68281117820669 36.432299877936)"><path d="M3.55 3.09 C3.55 3.09, 3.55 3.09, 3.55 3.09 M3.55 3.09 C3.55 3.09, 3.55 3.09, 3.55 3.09 M4.34 14.37 C8.85 8.61, 11.88 5.85, 15.49 1.54 M4.34 14.37 C8.39 8.87, 11.75 4.75, 15.49 1.54 M4.47 26.41 C9.5 18.78, 17.79 11.16, 26.12 1.51 M4.47 26.41 C12.22 17.68, 20.53 7.34, 26.12 1.51 M4.61 38.45 C14.89 27.73, 22.43 17.5, 36.1 2.23 M4.61 38.45 C12.25 28.93, 19.75 20.41, 36.1 2.23 M4.74 50.5 C20.26 35.32, 32.57 20.33, 46.07 2.95 M4.74 50.5 C15.09 40.35, 23.08 29.66, 46.07 2.95 M4.22 63.29 C20.59 43.31, 39.59 22.09, 53.42 6.69 M4.22 63.29 C15.38 50.49, 27.52 36.84, 53.42 6.69 M6.97 72.31 C19.38 58.16, 34.7 40.01, 56.18 15.71 M6.97 72.31 C21.34 56.08, 34.08 41.19, 56.18 15.71 M14.32 76.05 C28.24 59.94, 45.41 42.71, 56.31 27.75 M14.32 76.05 C27.94 60.58, 42.33 44.07, 56.31 27.75 M24.95 76.02 C33.23 63.87, 43.86 53.02, 56.45 39.79 M24.95 76.02 C37.04 62.1, 50.2 47.62, 56.45 39.79 M35.58 75.98 C39.78 69.42, 45.02 63.98, 55.92 52.59 M35.58 75.98 C40.26 70.88, 45.37 64.19, 55.92 52.59 M5.58 71.31 C5.58 71.31, 5.58 71.31, 5.58 71.31 M5.58 71.31 C5.58 71.31, 5.58 71.31, 5.58 71.31 M13.85 67.9 C9.93 66.18, 8.56 62.94, 1.78 57.4 M13.85 67.9 C9.51 64.25, 6.1 61.65, 1.78 57.4 M26.65 68.42 C19.58 62.76, 8.45 55.26, 1.74 46.77 M26.65 68.42 C19.78 63.6, 13.31 56.03, 1.74 46.77 M41.71 70.91 C31.1 59.69, 17.86 47.8, 1.71 36.14 M41.71 70.91 C31.5 61.66, 22.67 53.77, 1.71 36.14 M50.73 68.16 C40.49 57.07, 28.83 48.63, 1.67 25.51 M50.73 68.16 C40.77 59.74, 28.7 50.84, 1.67 25.51 M55.98 62.12 C36.73 45.75, 16.76 30.97, 1.64 14.88 M55.98 62.12 C37.2 45.64, 20.01 30.09, 1.64 14.88 M58.21 53.46 C40.57 37.12, 25.61 22.57, 3.87 6.22 M58.21 53.46 C37.85 36.84, 18.54 19.44, 3.87 6.22 M58.17 42.83 C38.64 25.84, 21.27 11.45, 8.36 -0.47 M58.17 42.83 C41.1 27.86, 22.57 11.47, 8.36 -0.47 M58.14 32.2 C44.71 19.61, 25.98 6.07, 16.63 -3.89 M58.14 32.2 C42.94 19.3, 28.75 5.86, 16.63 -3.89 M58.1 21.57 C47.65 12.5, 34.84 2.1, 28.67 -4.02 M58.1 21.57 C50.76 15.45, 43.41 10.09, 28.67 -4.02 M56.56 9.62 C52.51 6.67, 50.94 3.57, 44.48 -0.87 M56.56 9.62 C53.06 7.68, 50.74 3.79, 44.48 -0.87" stroke="#e9ecef" stroke-width="1" fill="none"></path><path d="M13.34 0 C22.67 1.02, 28.84 -1.5, 40.02 0 M13.34 0 C19.52 0.65, 25.76 -1.11, 40.02 0 M40.02 0 C50.04 -0.99, 54.11 3.09, 53.37 13.34 M40.02 0 C46.7 -0.31, 51.77 4.08, 53.37 13.34 M53.37 13.34 C52.88 28.1, 52.33 46, 53.37 59.52 M53.37 13.34 C53.13 27.86, 53.06 41.6, 53.37 59.52 M53.37 59.52 C55.13 68.24, 47.23 71.01, 40.02 72.86 M53.37 59.52 C54.49 66.22, 50.07 70.86, 40.02 72.86 M40.02 72.86 C33.99 72.99, 26.91 72.26, 13.34 72.86 M40.02 72.86 C32.26 71.99, 24.97 72.01, 13.34 72.86 M13.34 72.86 C4.06 74.29, -1.81 67.15, 0 59.52 M13.34 72.86 C2.29 72.85, 2.25 68.87, 0 59.52 M0 59.52 C-1.95 45.63, -0.17 28.46, 0 13.34 M0 59.52 C-0.54 43.22, -0.55 26.38, 0 13.34 M0 13.34 C0.13 4.57, 5.32 -0.66, 13.34 0 M0 13.34 C0.27 3.04, 3.98 -0.35, 13.34 0" stroke="#1e1e1e" stroke-width="2" fill="none"></path></g><g stroke-linecap="round" transform="translate(229.86658700608746 94.58765400291719) rotate(0 67.810824846802 78.21362184034555)"><path d="M32 0 C60.22 -3.26, 87.2 -3.14, 103.62 0 C126.92 -2.11, 132.85 9.23, 135.62 32 C135.64 59.51, 132.77 81.43, 135.62 124.43 C135.86 149.17, 123.17 154.14, 103.62 156.43 C79.94 155.05, 50.77 158.79, 32 156.43 C10.04 155.06, -3.33 144.11, 0 124.43 C-3.08 97.42, -0.43 72.22, 0 32 C-0.48 13.8, 10.62 1.76, 32 0" stroke="none" stroke-width="0" fill="#ffffff"></path><path d="M32 0 C56.45 0.34, 84.76 1.03, 103.62 0 M32 0 C48.85 0.13, 67.19 -0.05, 103.62 0 M103.62 0 C125.72 -1.13, 137.59 12.05, 135.62 32 M103.62 0 C125.16 1.29, 136.32 10.78, 135.62 32 M135.62 32 C136.09 56.79, 136.97 79.12, 135.62 124.43 M135.62 32 C136.11 56.14, 134.77 81.17, 135.62 124.43 M135.62 124.43 C135.47 146.95, 124.26 156.21, 103.62 156.43 M135.62 124.43 C133.67 144.83, 125.12 158.61, 103.62 156.43 M103.62 156.43 C86.09 155.15, 68.54 155.66, 32 156.43 M103.62 156.43 C81.58 155.04, 59.6 155.32, 32 156.43 M32 156.43 C9.38 155.74, 0.09 146.92, 0 124.43 M32 156.43 C12.95 156.97, -0.85 147.82, 0 124.43 M0 124.43 C2.21 98.59, 2.58 68.72, 0 32 M0 124.43 C1.7 103.64, 0.48 83.58, 0 32 M0 32 C1.86 11.73, 11.55 1.1, 32 0 M0 32 C1.93 10.13, 8.47 -1.74, 32 0" stroke="#1e1e1e" stroke-width="2" fill="none"></path></g><g stroke-linecap="round" transform="translate(286.3158933992869 85.10164463253727) rotate(0 44.30820941694458 86.6899749461958)"><path d="M0.08 -0.22 L87.98 0.56 L89.73 174.41 L1.76 172.22" stroke="none" stroke-width="0" fill="#ffffff"></path><path d="M0 0 C23.57 0.12, 45.72 -1.55, 88.62 0 M0 0 C30.06 0.15, 59.2 -0.48, 88.62 0 M88.62 0 C87.71 45.96, 89.45 93.22, 88.62 173.38 M88.62 0 C88.39 58.04, 89.41 114.95, 88.62 173.38 M88.62 173.38 C61.26 174.99, 31.76 174.11, 0 173.38 M88.62 173.38 C56.32 173.2, 25.26 174.12, 0 173.38 M0 173.38 C-0.69 133.5, -0.18 94.41, 0 0 M0 173.38 C1.14 138.55, -0.38 103.64, 0 0" stroke="#ffffff" stroke-width="2" fill="none"></path></g><g transform="translate(102.85065419653574 156.04280359000597) rotate(0 36.373175759870065 13.929678477339962)"><text x="0" y="0" font-family="Virgil, Segoe UI Emoji" font-size="11.143742781871977px" fill="#1e1e1e" text-anchor="start" style="white-space: pre;" direction="ltr" dominant-baseline="text-before-edge">sorry for the</text><text x="0" y="13.929678477339971" font-family="Virgil, Segoe UI Emoji" font-size="11.143742781871977px" fill="#1e1e1e" text-anchor="start" style="white-space: pre;" direction="ltr" dominant-baseline="text-before-edge">inconvenience </text></g><g stroke-linecap="round" transform="translate(98.2274974113285 151.4196468047989) rotate(0 40.28750912823392 17.501950686855707)"><path d="M8.75 0 C27.36 1.2, 42.04 -0.77, 71.82 0 M8.75 0 C23.37 -0.54, 38.45 -1.06, 71.82 0 M71.82 0 C76.31 -1.46, 82.04 3.12, 80.58 8.75 M71.82 0 C79.92 -0.23, 79.56 1.22, 80.58 8.75 M80.58 8.75 C81.01 11.69, 79.97 16.41, 80.58 26.25 M80.58 8.75 C80.86 14.89, 81.4 20.43, 80.58 26.25 M80.58 26.25 C80.92 31.41, 77 33.24, 71.82 35 M80.58 26.25 C79.35 30.38, 78 32.75, 71.82 35 M71.82 35 C51.92 35.53, 34.91 35.38, 8.75 35 M71.82 35 C49.74 35.96, 29.29 35.45, 8.75 35 M8.75 35 C1.22 33.12, 1.43 31.07, 0 26.25 M8.75 35 C3.34 36.51, 0.12 31.04, 0 26.25 M0 26.25 C0.45 21.08, -1.43 16.28, 0 8.75 M0 26.25 C-0.57 20.25, -0.16 15.03, 0 8.75 M0 8.75 C-0.39 4.26, 1.24 -0.98, 8.75 0 M0 8.75 C-0.48 1.41, 2.63 -0.1, 8.75 0" stroke="#1e1e1e" stroke-width="2" fill="none"></path></g><g transform="translate(182.00265429520095 165.28711544911584) rotate(0 -2.0470696391888623 -1.8609723992625504)" stroke="none"><path fill="#ffffff" d="M -3.06,1.02 Q -3.06,1.02 -3.24,-0.34 -3.43,-1.70 -3.85,-2.62 -4.27,-3.53 -4.38,-3.86 -4.49,-4.18 -4.52,-4.51 -4.55,-4.85 -4.50,-5.19 -4.44,-5.52 -4.31,-5.83 -4.18,-6.15 -3.98,-6.42 -3.78,-6.69 -3.51,-6.90 -3.25,-7.12 -2.95,-7.27 -2.64,-7.41 -2.31,-7.48 -1.98,-7.55 -1.64,-7.54 -1.30,-7.53 -0.97,-7.43 -0.65,-7.34 -0.35,-7.17 -0.06,-7.00 0.17,-6.77 0.42,-6.54 0.60,-6.25 0.78,-5.97 0.90,-5.61 1.02,-5.26 1.18,-4.97 1.35,-4.68 1.44,-4.36 1.53,-4.04 1.54,-3.71 1.55,-3.37 1.48,-3.05 1.41,-2.72 1.26,-2.42 1.12,-2.12 0.90,-1.86 0.69,-1.61 0.42,-1.41 0.15,-1.21 -0.15,-1.08 -0.45,-0.96 -0.78,-0.91 -1.11,-0.86 -1.45,-0.89 -1.78,-0.92 -2.09,-1.02 -2.41,-1.13 -2.69,-1.31 -2.97,-1.50 -3.20,-1.74 -3.43,-1.98 -4.17,-4.02 -4.91,-6.05 -4.89,-5.77 -4.86,-5.49 -4.95,-5.82 -5.05,-6.14 -5.06,-6.48 -5.07,-6.82 -5.00,-7.15 -4.94,-7.48 -4.79,-7.79 -4.65,-8.09 -4.43,-8.35 -4.22,-8.62 -3.95,-8.82 -3.68,-9.02 -3.36,-9.15 -3.05,-9.29 -2.72,-9.34 -2.39,-9.39 -2.05,-9.37 -1.71,-9.34 -1.39,-9.23 -1.07,-9.12 -0.78,-8.94 -0.50,-8.76 -0.26,-8.52 -0.03,-8.27 0.13,-7.98 0.30,-7.69 0.60,-7.50 0.90,-7.31 1.08,-7.03 1.26,-6.75 1.37,-6.43 1.47,-6.12 1.50,-5.78 1.53,-5.45 1.48,-5.12 1.43,-4.79 1.30,-4.49 1.17,-4.18 0.97,-3.91 0.77,-3.65 0.51,-3.43 0.25,-3.22 -0.04,-3.08 -0.34,-2.93 -0.66,-2.87 -0.99,-2.80 -1.32,-2.81 -1.65,-2.82 -1.98,-2.92 -2.30,-3.01 -2.58,-3.17 -2.87,-3.34 -3.11,-3.57 -3.36,-3.80 -4.31,-6.04 -5.26,-8.28 -5.44,-8.43 -5.62,-8.58 -5.75,-8.88 -5.89,-9.19 -5.95,-9.52 -6.00,-9.85 -5.98,-10.19 -5.96,-10.52 -5.86,-10.84 -5.76,-11.16 -5.58,-11.45 -5.41,-11.73 -5.17,-11.97 -4.93,-12.20 -4.64,-12.38 -4.35,-12.55 -4.03,-12.65 -3.71,-12.74 -3.37,-12.76 -3.04,-12.78 -2.71,-12.72 -2.38,-12.65 -2.07,-12.51 -1.77,-12.37 -1.51,-12.17 -1.24,-11.96 -1.04,-11.69 -0.83,-11.43 -0.17,-9.47 0.48,-7.51 0.56,-7.18 0.64,-6.85 0.63,-6.52 0.63,-6.18 0.55,-5.86 0.46,-5.54 0.30,-5.24 0.14,-4.94 -0.07,-4.70 -0.30,-4.45 -0.58,-4.26 -0.85,-4.07 -1.17,-3.96 -1.48,-3.84 -1.82,-3.81 -2.15,-3.77 -2.48,-3.81 -2.81,-3.86 -3.13,-3.98 -3.44,-4.10 -3.71,-4.30 -3.99,-4.49 -4.21,-4.74 -4.42,-5.00 -4.58,-5.29 -4.73,-5.59 -5.53,-6.69 -6.32,-7.78 -6.54,-8.04 -6.76,-8.30 -6.91,-8.61 -7.05,-8.91 -7.13,-9.24 -7.20,-9.58 -7.19,-9.91 -7.18,-10.25 -7.09,-10.58 -7.00,-10.91 -6.83,-11.20 -6.67,-11.50 -6.43,-11.75 -6.20,-11.99 -5.92,-12.18 -5.63,-12.36 -5.31,-12.47 -4.99,-12.59 -4.66,-12.62 -4.32,-12.65 -3.98,-12.60 -3.65,-12.55 -3.33,-12.42 -3.02,-12.29 -2.75,-12.09 -2.47,-11.89 -1.95,-10.93 -1.42,-9.96 -1.36,-9.63 -1.31,-9.30 -1.33,-8.96 -1.36,-8.62 -1.46,-8.30 -1.57,-7.98 -1.75,-7.69 -1.93,-7.40 -2.17,-7.17 -2.41,-6.93 -2.70,-6.76 -3.00,-6.59 -3.32,-6.49 -3.65,-6.40 -3.98,-6.38 -4.32,-6.37 -4.65,-6.43 -4.99,-6.50 -5.29,-6.64 -5.60,-6.78 -5.86,-7.00 -6.13,-7.21 -6.33,-7.48 -6.54,-7.75 -6.67,-8.06 -6.80,-8.37 -5.74,-11.05 -4.68,-13.72 -3.86,-13.81 -3.04,-13.89 -2.76,-13.72 -2.48,-13.55 -2.25,-13.32 -2.02,-13.08 -1.86,-12.80 -1.69,-12.52 -1.59,-12.20 -1.50,-11.89 -1.48,-11.56 -1.46,-11.23 -1.53,-10.91 -1.59,-10.58 -1.73,-10.29 -1.86,-9.99 -2.07,-9.73 -2.27,-9.47 -2.53,-9.27 -2.79,-9.07 -3.09,-8.94 -3.40,-8.81 -3.72,-8.75 -4.04,-8.70 -4.37,-8.72 -4.70,-8.74 -5.01,-8.84 -5.32,-8.94 -3.94,-8.96 -2.55,-8.98 -2.82,-8.79 -3.08,-8.60 -3.39,-8.47 -3.69,-8.35 -4.02,-8.30 -4.35,-8.25 -4.68,-8.29 -5.01,-8.32 -5.32,-8.43 -5.63,-8.54 -5.91,-8.72 -6.18,-8.90 -6.41,-9.14 -6.63,-9.39 -6.79,-9.67 -6.95,-9.96 -7.04,-10.28 -7.12,-10.60 -7.13,-10.93 -7.14,-11.26 -7.07,-11.58 -7.00,-11.91 -6.85,-12.20 -6.70,-12.50 -6.49,-12.75 -6.27,-13.00 -5.83,-13.26 -5.39,-13.51 -5.12,-13.70 -4.84,-13.88 -4.54,-14.00 -4.23,-14.11 -3.90,-14.15 -3.57,-14.18 -3.25,-14.14 -2.92,-14.10 -2.61,-13.98 -2.30,-13.86 -2.04,-13.67 -1.77,-13.48 -1.55,-13.23 -1.33,-12.99 -1.18,-12.69 -1.03,-12.40 -0.96,-12.08 -0.88,-11.76 -0.88,-11.43 -0.89,-11.10 -0.97,-10.78 -1.05,-10.46 -1.20,-10.17 -1.36,-9.88 -1.58,-9.64 -1.80,-9.39 -3.29,-10.94 -4.78,-12.48 -2.59,-12.21 -0.39,-11.93 -0.57,-9.63 -0.74,-7.33 -0.39,-7.64 -0.04,-7.95 0.21,-7.75 0.46,-7.54 0.66,-7.29 0.85,-7.03 0.99,-6.73 1.12,-6.43 1.17,-6.11 1.23,-5.79 1.20,-5.47 1.18,-5.15 1.08,-4.84 0.98,-4.53 0.81,-4.25 0.64,-3.97 0.41,-3.75 0.17,-3.52 -0.09,-3.36 -0.37,-3.19 -0.69,-3.10 -1.00,-3.00 -1.32,-2.99 -1.64,-2.97 -1.96,-3.03 -2.28,-3.09 -2.58,-3.23 -2.87,-3.37 -1.16,-2.02 0.54,-0.68 0.60,-0.58 0.67,-0.48 0.72,-0.15 0.78,0.16 0.75,0.49 0.73,0.81 0.63,1.12 0.52,1.44 0.35,1.71 0.18,1.99 -0.05,2.22 -0.28,2.45 -0.57,2.61 -0.85,2.78 -1.17,2.87 -1.48,2.96 -1.81,2.98 -2.14,2.99 -2.46,2.93 -2.78,2.86 -3.08,2.72 -3.37,2.59 -3.63,2.38 -3.88,2.17 -4.08,1.91 -4.28,1.65 -4.41,1.35 -4.54,1.05 -2.54,0.00 -0.54,-1.04 -0.22,1.34 0.10,3.74 -0.08,5.40 -0.26,7.06 -0.38,7.37 -0.50,7.68 -0.68,7.96 -0.87,8.23 -1.12,8.45 -1.36,8.67 -1.66,8.83 -1.95,8.99 -2.27,9.07 -2.59,9.15 -2.93,9.15 -3.26,9.15 -3.58,9.08 -3.90,9.00 -4.20,8.85 -4.49,8.70 -4.74,8.48 -4.99,8.26 -5.18,7.99 -5.37,7.71 -5.49,7.40 -5.61,7.10 -5.66,6.77 -5.70,6.44 -5.66,6.11 -5.62,5.78 -5.55,5.74 -5.48,5.70 -5.44,5.38 -5.40,5.05 -5.29,4.74 -5.18,4.44 -4.99,4.16 -4.81,3.89 -4.57,3.67 -4.32,3.45 -4.03,3.30 -3.75,3.14 -3.43,3.06 -3.11,2.98 -2.78,2.98 -2.45,2.97 -2.14,3.05 -1.82,3.13 -1.53,3.27 -1.23,3.42 -0.99,3.64 -0.74,3.85 -0.55,4.12 -0.36,4.39 -0.24,4.70 -0.12,5.00 -0.08,5.33 -0.04,5.65 -1.65,7.15 -3.26,8.64 -3.19,8.88 -3.12,9.11 -3.45,9.06 -3.79,9.01 -4.10,8.87 -4.40,8.74 -4.67,8.54 -4.94,8.34 -5.15,8.08 -5.37,7.82 -5.51,7.52 -5.66,7.21 -5.72,6.89 -5.79,6.56 -5.78,6.22 -5.76,5.89 -5.67,5.56 -5.58,5.24 -5.41,4.95 -5.24,4.66 -5.01,4.42 -4.78,4.17 -4.50,3.99 -4.21,3.81 -3.89,3.71 -3.58,3.60 -3.24,3.57 -2.91,3.55 -2.76,3.56 -2.60,3.58 -2.30,3.47 -1.99,3.36 -1.66,3.33 -1.33,3.30 -1.01,3.35 -0.69,3.40 -0.38,3.52 -0.08,3.65 0.17,3.84 0.44,4.03 0.65,4.28 0.86,4.53 1.00,4.83 1.15,5.12 1.22,5.44 1.29,5.76 1.28,6.09 1.27,6.42 1.18,6.73 1.10,7.05 0.94,7.34 0.78,7.62 0.55,7.86 0.33,8.10 0.06,8.28 -0.21,8.46 -2.52,8.42 -4.84,8.37 -5.15,8.26 -5.47,8.15 -5.75,7.96 -6.03,7.77 -6.26,7.53 -6.49,7.28 -6.65,6.98 -6.81,6.69 -6.90,6.36 -6.99,6.03 -6.99,5.70 -7.00,5.36 -6.92,5.03 -6.85,4.70 -6.70,4.40 -6.55,4.10 -6.33,3.84 -6.11,3.59 -5.84,3.39 -5.56,3.19 -5.25,3.07 -4.94,2.94 -4.60,2.90 -4.27,2.85 -3.93,2.88 -3.60,2.92 -3.00,2.73 -2.40,2.54 -2.07,2.55 -1.75,2.56 -1.44,2.65 -1.12,2.74 -0.84,2.90 -0.56,3.06 -0.33,3.28 -0.09,3.50 0.08,3.78 0.25,4.05 0.36,4.36 0.46,4.66 0.49,4.99 0.52,5.31 0.47,5.63 0.42,5.95 0.29,6.25 0.17,6.55 -0.02,6.81 -0.21,7.07 -0.46,7.28 -0.71,7.49 -1.00,7.63 -1.30,7.77 -1.61,7.83 -1.93,7.90 -0.07,6.19 1.78,4.48 2.21,4.47 2.63,4.47 3.03,4.60 3.44,4.74 3.78,4.99 4.12,5.24 4.36,5.59 4.60,5.94 4.72,6.35 4.84,6.76 4.82,7.18 4.80,7.61 4.64,8.01 4.49,8.40 4.22,8.73 3.95,9.05 3.58,9.28 3.22,9.50 2.81,9.59 2.39,9.69 1.97,9.65 1.55,9.60 1.16,9.43 0.77,9.25 0.46,8.96 0.15,8.67 -0.04,8.30 -0.24,7.93 -0.32,7.51 -0.39,7.09 -0.32,6.67 -0.26,6.25 -0.06,5.87 0.12,5.49 0.43,5.20 0.74,4.91 1.12,4.72 1.50,4.54 1.93,4.49 2.35,4.44 2.76,4.53 3.18,4.62 3.55,4.83 3.91,5.05 4.19,5.37 4.47,5.69 4.63,6.09 4.79,6.48 4.82,6.90 4.84,7.33 4.73,7.74 4.62,8.15 4.39,8.50 4.15,8.86 3.81,9.12 3.48,9.38 3.08,9.52 2.67,9.66 2.67,9.66 2.68,9.65 0.33,10.11 -2.02,10.56 -4.21,10.45 -6.40,10.33 -7.07,7.81 -7.73,5.29 -5.06,3.91 -2.40,2.54 -2.07,2.55 -1.75,2.56 -1.44,2.65 -1.13,2.74 -0.84,2.90 -0.56,3.06 -0.33,3.28 -0.09,3.50 0.08,3.78 0.25,4.05 0.35,4.36 0.46,4.66 0.49,4.99 0.52,5.31 0.47,5.63 0.42,5.95 0.29,6.25 0.17,6.55 -0.02,6.81 -0.21,7.07 -0.46,7.28 -0.71,7.49 -1.00,7.63 -1.30,7.77 -1.61,7.83 -1.93,7.90 -3.38,8.14 -4.83,8.37 -5.15,8.26 -5.47,8.15 -5.75,7.96 -6.03,7.77 -6.26,7.53 -6.49,7.28 -6.65,6.98 -6.81,6.69 -6.90,6.36 -6.99,6.04 -6.99,5.70 -7.00,5.36 -6.92,5.03 -6.85,4.70 -6.70,4.40 -6.55,4.10 -6.33,3.84 -6.11,3.59 -5.84,3.39 -5.56,3.19 -5.25,3.07 -4.94,2.94 -4.60,2.90 -4.27,2.85 -3.93,2.88 -3.60,2.92 -3.10,3.25 -2.60,3.58 -2.30,3.47 -1.99,3.36 -1.66,3.33 -1.33,3.30 -1.01,3.35 -0.69,3.40 -0.38,3.52 -0.08,3.65 0.17,3.84 0.44,4.03 0.65,4.28 0.86,4.53 1.00,4.83 1.15,5.12 1.22,5.44 1.29,5.76 1.28,6.09 1.27,6.42 1.18,6.73 1.10,7.05 0.94,7.33 0.78,7.62 0.55,7.86 0.33,8.10 0.06,8.28 -0.21,8.46 -1.67,8.78 -3.12,9.11 -3.45,9.06 -3.79,9.01 -4.09,8.87 -4.40,8.74 -4.67,8.54 -4.94,8.34 -5.15,8.08 -5.37,7.82 -5.51,7.52 -5.66,7.21 -5.72,6.89 -5.79,6.56 -5.78,6.22 -5.76,5.89 -5.67,5.56 -5.58,5.24 -5.41,4.95 -5.24,4.66 -5.01,4.42 -4.78,4.17 -4.50,3.99 -4.21,3.81 -3.89,3.71 -3.58,3.60 -3.24,3.57 -2.91,3.55 -1.35,4.27 0.20,4.99 -1.06,7.18 -2.33,9.36 -3.91,7.53 -5.48,5.70 -5.44,5.38 -5.40,5.05 -5.29,4.74 -5.18,4.44 -4.99,4.16 -4.81,3.89 -4.57,3.67 -4.32,3.45 -4.03,3.30 -3.75,3.14 -3.43,3.06 -3.11,2.98 -2.78,2.98 -2.46,2.97 -2.14,3.05 -1.82,3.13 -1.53,3.27 -1.23,3.42 -0.99,3.64 -0.74,3.85 -0.55,4.12 -0.36,4.39 -0.24,4.70 -0.12,5.00 -0.08,5.33 -0.04,5.65 -0.15,6.35 -0.26,7.06 -0.38,7.37 -0.50,7.68 -0.68,7.96 -0.87,8.23 -1.12,8.45 -1.36,8.67 -1.66,8.83 -1.95,8.99 -2.27,9.07 -2.59,9.15 -2.93,9.15 -3.26,9.15 -3.58,9.08 -3.90,9.00 -4.20,8.85 -4.49,8.70 -4.74,8.48 -4.99,8.26 -5.18,7.99 -5.37,7.71 -5.49,7.41 -5.61,7.10 -5.66,6.77 -5.70,6.44 -5.66,6.11 -5.62,5.78 -5.60,5.59 -5.59,5.41 -5.64,3.23 -5.69,1.06 -5.08,-1.17 -4.47,-3.42 -1.89,-1.95 0.67,-0.48 0.72,-0.15 0.78,0.16 0.75,0.49 0.73,0.81 0.63,1.12 0.52,1.44 0.35,1.71 0.18,1.99 -0.05,2.22 -0.28,2.45 -0.57,2.61 -0.85,2.78 -1.17,2.87 -1.48,2.96 -1.81,2.98 -2.14,2.99 -2.46,2.93 -2.78,2.86 -3.07,2.72 -3.37,2.59 -3.63,2.38 -3.88,2.17 -4.08,1.91 -4.28,1.65 -4.41,1.35 -4.54,1.05 -4.77,-0.29 -5.00,-1.64 -4.70,-4.43 -4.40,-7.22 -2.22,-7.58 -0.04,-7.95 0.21,-7.75 0.46,-7.54 0.66,-7.29 0.85,-7.03 0.98,-6.73 1.12,-6.43 1.17,-6.11 1.23,-5.79 1.20,-5.47 1.18,-5.15 1.08,-4.84 0.98,-4.53 0.81,-4.25 0.64,-3.98 0.41,-3.75 0.18,-3.52 -0.09,-3.36 -0.37,-3.19 -0.69,-3.10 -1.00,-3.00 -1.32,-2.99 -1.64,-2.97 -1.96,-3.03 -2.28,-3.09 -2.58,-3.23 -2.87,-3.37 -3.39,-3.85 -3.91,-4.33 -3.23,-6.47 -2.56,-8.61 -4.92,-8.62 -7.28,-8.63 -6.34,-11.07 -5.39,-13.51 -5.12,-13.70 -4.84,-13.88 -4.54,-14.00 -4.23,-14.11 -3.90,-14.15 -3.57,-14.18 -3.25,-14.14 -2.92,-14.10 -2.61,-13.98 -2.30,-13.86 -2.04,-13.67 -1.77,-13.48 -1.55,-13.23 -1.33,-12.99 -1.18,-12.69 -1.03,-12.40 -0.96,-12.08 -0.88,-11.76 -0.88,-11.43 -0.89,-11.10 -0.97,-10.78 -1.05,-10.46 -1.20,-10.17 -1.36,-9.88 -1.58,-9.64 -1.80,-9.39 -2.17,-9.19 -2.55,-8.98 -2.81,-8.79 -3.08,-8.60 -3.39,-8.47 -3.69,-8.35 -4.02,-8.30 -4.35,-8.25 -4.68,-8.29 -5.01,-8.32 -5.32,-8.43 -5.63,-8.54 -5.91,-8.72 -6.18,-8.90 -6.41,-9.14 -6.63,-9.39 -6.79,-9.67 -6.95,-9.96 -7.04,-10.28 -7.12,-10.60 -7.13,-10.93 -7.14,-11.26 -7.07,-11.58 -7.00,-11.91 -6.85,-12.20 -6.70,-12.50 -6.49,-12.75 -6.27,-13.00 -4.66,-13.45 -3.04,-13.89 -2.76,-13.72 -2.48,-13.55 -2.25,-13.32 -2.02,-13.08 -1.86,-12.80 -1.69,-12.52 -1.59,-12.20 -1.50,-11.89 -1.48,-11.56 -1.46,-11.23 -1.53,-10.91 -1.59,-10.58 -1.73,-10.29 -1.86,-9.99 -2.07,-9.73 -2.27,-9.47 -2.53,-9.27 -2.79,-9.07 -3.09,-8.94 -3.40,-8.81 -3.72,-8.75 -4.04,-8.70 -4.37,-8.72 -4.70,-8.74 -5.01,-8.84 -5.32,-8.94 -3.37,-9.45 -1.42,-9.96 -1.36,-9.63 -1.31,-9.30 -1.33,-8.96 -1.36,-8.62 -1.46,-8.30 -1.57,-7.98 -1.75,-7.69 -1.93,-7.40 -2.17,-7.17 -2.41,-6.93 -2.70,-6.76 -3.00,-6.59 -3.32,-6.49 -3.65,-6.40 -3.98,-6.38 -4.32,-6.37 -4.65,-6.43 -4.99,-6.50 -5.29,-6.64 -5.60,-6.78 -5.86,-7.00 -6.13,-7.21 -6.33,-7.48 -6.54,-7.75 -6.67,-8.06 -6.80,-8.37 -6.56,-8.08 -6.32,-7.78 -6.54,-8.04 -6.76,-8.30 -6.91,-8.61 -7.05,-8.91 -7.13,-9.24 -7.20,-9.58 -7.19,-9.91 -7.18,-10.25 -7.09,-10.58 -7.00,-10.91 -6.83,-11.20 -6.67,-11.50 -6.43,-11.75 -6.20,-11.99 -5.92,-12.18 -5.63,-12.36 -5.31,-12.47 -4.99,-12.59 -4.66,-12.62 -4.32,-12.65 -3.98,-12.60 -3.65,-12.55 -3.33,-12.42 -3.02,-12.29 -2.75,-12.09 -2.47,-11.89 -2.38,-11.67 -2.28,-11.45 -0.89,-9.48 0.48,-7.51 0.56,-7.18 0.64,-6.86 0.63,-6.52 0.63,-6.18 0.55,-5.86 0.46,-5.54 0.30,-5.24 0.14,-4.95 -0.07,-4.70 -0.30,-4.45 -0.57,-4.26 -0.85,-4.07 -1.17,-3.96 -1.48,-3.84 -1.82,-3.81 -2.15,-3.77 -2.48,-3.81 -2.81,-3.86 -3.13,-3.98 -3.44,-4.10 -3.71,-4.30 -3.99,-4.49 -4.21,-4.74 -4.42,-5.00 -4.58,-5.29 -4.73,-5.59 -5.17,-7.08 -5.62,-8.58 -5.75,-8.88 -5.89,-9.19 -5.95,-9.52 -6.00,-9.85 -5.98,-10.19 -5.96,-10.52 -5.86,-10.84 -5.76,-11.16 -5.58,-11.45 -5.41,-11.73 -5.17,-11.97 -4.93,-12.20 -4.64,-12.38 -4.35,-12.55 -4.03,-12.65 -3.71,-12.74 -3.37,-12.76 -3.04,-12.78 -2.71,-12.72 -2.38,-12.65 -2.07,-12.51 -1.77,-12.37 -1.51,-12.17 -1.24,-11.96 -1.04,-11.69 -0.83,-11.43 -0.92,-11.53 -1.00,-11.64 -0.05,-9.47 0.90,-7.31 1.08,-7.03 1.26,-6.75 1.37,-6.43 1.47,-6.12 1.50,-5.78 1.53,-5.45 1.48,-5.12 1.43,-4.79 1.30,-4.49 1.17,-4.18 0.97,-3.91 0.77,-3.65 0.51,-3.43 0.25,-3.22 -0.04,-3.08 -0.34,-2.94 -0.66,-2.87 -0.99,-2.80 -1.32,-2.81 -1.65,-2.82 -1.97,-2.92 -2.30,-3.01 -2.58,-3.17 -2.87,-3.34 -3.11,-3.57 -3.36,-3.80 -4.11,-4.64 -4.86,-5.49 -4.95,-5.82 -5.05,-6.14 -5.06,-6.48 -5.07,-6.82 -5.00,-7.15 -4.94,-7.48 -4.79,-7.79 -4.65,-8.09 -4.43,-8.35 -4.22,-8.61 -3.95,-8.82 -3.68,-9.02 -3.37,-9.15 -3.05,-9.29 -2.72,-9.34 -2.39,-9.39 -2.05,-9.37 -1.71,-9.34 -1.39,-9.23 -1.07,-9.12 -0.78,-8.94 -0.50,-8.76 -0.26,-8.52 -0.03,-8.27 0.13,-7.98 0.30,-7.69 0.66,-6.47 1.02,-5.26 1.18,-4.97 1.35,-4.68 1.44,-4.36 1.53,-4.04 1.54,-3.71 1.55,-3.37 1.48,-3.05 1.41,-2.72 1.26,-2.42 1.12,-2.12 0.90,-1.86 0.69,-1.61 0.42,-1.41 0.15,-1.21 -0.15,-1.08 -0.45,-0.96 -0.78,-0.91 -1.11,-0.86 -1.45,-0.89 -1.78,-0.92 -2.09,-1.02 -2.41,-1.13 -2.69,-1.31 -2.97,-1.49 -3.20,-1.74 -3.43,-1.98 -3.85,-2.76 -4.27,-3.53 -4.38,-3.86 -4.49,-4.18 -4.52,-4.51 -4.55,-4.85 -4.50,-5.19 -4.44,-5.52 -4.31,-5.83 -4.18,-6.15 -3.98,-6.42 -3.78,-6.69 -3.51,-6.90 -3.25,-7.12 -2.95,-7.27 -2.64,-7.41 -2.31,-7.48 -1.98,-7.55 -1.64,-7.54 -1.30,-7.53 -0.97,-7.43 -0.65,-7.34 -0.35,-7.17 -0.06,-7.00 0.17,-6.77 0.42,-6.54 0.60,-6.25 0.78,-5.97 1.25,-4.69 1.72,-3.42 2.39,-2.22 3.06,-1.02 3.14,-0.63 3.21,-0.25 3.20,0.13 3.18,0.51 3.07,0.89 2.96,1.26 2.77,1.60 2.57,1.94 2.31,2.22 2.04,2.50 1.71,2.70 1.38,2.91 1.01,3.04 0.64,3.16 0.25,3.19 -0.13,3.22 -0.51,3.16 -0.89,3.10 -1.25,2.94 -1.61,2.79 -1.92,2.56 -2.23,2.32 -2.48,2.02 -2.72,1.72 -2.89,1.37 -3.06,1.02 -3.06,1.02 L -3.06,1.02 Z"></path></g><g transform="translate(178.65290397652836 166.40369888867343) rotate(0 0.18609723992625504 4.094139278377668)" stroke="none"><path fill="#1e1e1e" d="M 1.60,-0.11 Q 1.60,-0.11 1.59,1.39 1.57,2.89 1.44,5.62 1.30,8.35 1.24,8.55 1.18,8.75 1.06,8.93 0.93,9.10 0.76,9.23 0.59,9.35 0.39,9.42 0.19,9.48 -0.02,9.48 -0.23,9.48 -0.43,9.40 -0.63,9.33 -0.80,9.20 -0.96,9.07 -1.08,8.89 -1.20,8.71 -1.25,8.51 -1.30,8.30 -1.29,8.09 -1.27,7.88 -1.19,7.68 -1.11,7.49 -0.97,7.33 -0.83,7.17 -0.64,7.06 -0.46,6.96 -0.25,6.91 -0.04,6.87 0.16,6.90 0.37,6.92 0.56,7.02 0.75,7.11 0.90,7.26 1.05,7.41 1.15,7.60 1.25,7.79 1.28,8.00 1.31,8.21 1.27,8.41 1.23,8.62 1.13,8.81 1.03,9.00 0.87,9.14 0.71,9.28 0.52,9.37 0.32,9.45 0.11,9.47 -0.09,9.49 -0.30,9.44 -0.50,9.39 -0.68,9.28 -0.86,9.17 -1.00,9.01 -1.13,8.84 -1.21,8.64 -1.28,8.44 -1.29,8.23 -1.30,8.02 -1.30,8.02 -1.30,8.02 -1.22,5.55 -1.15,3.09 -1.38,1.60 -1.60,0.11 -1.60,-0.07 -1.59,-0.27 -1.53,-0.46 -1.47,-0.64 -1.38,-0.81 -1.28,-0.98 -1.14,-1.12 -1.00,-1.25 -0.84,-1.36 -0.67,-1.46 -0.49,-1.52 -0.30,-1.58 -0.11,-1.59 0.07,-1.61 0.27,-1.57 0.46,-1.54 0.64,-1.46 0.82,-1.39 0.97,-1.27 1.12,-1.15 1.25,-1.00 1.37,-0.84 1.45,-0.67 1.53,-0.49 1.57,-0.30 1.60,-0.11 1.60,-0.11 L 1.60,-0.11 Z"></path></g><g transform="translate(171.95340333918307 151.8881141744253) rotate(0 7.443889597050315 2.842170943040401e-14)" stroke="none"><path fill="#1e1e1e" d="M -0.39,-1.56 Q -0.39,-1.56 0.49,-1.65 1.38,-1.74 2.80,-1.89 4.22,-2.03 5.71,-2.06 7.20,-2.08 8.48,-1.79 9.76,-1.50 10.88,-1.23 12.00,-0.97 13.46,-0.77 14.93,-0.56 15.13,-0.52 15.34,-0.48 15.53,-0.37 15.71,-0.27 15.85,-0.11 15.99,0.04 16.08,0.23 16.16,0.43 16.18,0.64 16.19,0.85 16.14,1.06 16.09,1.27 15.97,1.44 15.85,1.62 15.69,1.75 15.52,1.89 15.32,1.96 15.12,2.03 14.91,2.04 14.70,2.04 14.49,1.98 14.29,1.91 14.12,1.79 13.95,1.66 13.83,1.49 13.70,1.32 13.64,1.11 13.58,0.91 13.59,0.70 13.59,0.48 13.67,0.28 13.74,0.09 13.88,-0.07 14.01,-0.23 14.19,-0.35 14.37,-0.46 14.58,-0.51 14.78,-0.56 15.00,-0.54 15.21,-0.52 15.40,-0.44 15.60,-0.35 15.75,-0.21 15.91,-0.07 16.02,0.11 16.12,0.29 16.16,0.50 16.20,0.71 16.17,0.92 16.14,1.13 16.04,1.32 15.94,1.51 15.79,1.66 15.64,1.81 15.45,1.90 15.26,2.00 15.05,2.02 14.84,2.05 14.84,2.05 14.84,2.05 12.37,1.62 9.90,1.19 8.56,0.90 7.22,0.61 5.80,0.64 4.39,0.66 3.21,0.77 2.03,0.88 1.21,1.22 0.39,1.56 0.19,1.58 0.00,1.61 -0.18,1.59 -0.38,1.56 -0.56,1.50 -0.74,1.43 -0.90,1.32 -1.06,1.21 -1.19,1.06 -1.32,0.92 -1.41,0.74 -1.50,0.57 -1.55,0.38 -1.60,0.19 -1.60,0.00 -1.60,-0.18 -1.55,-0.37 -1.51,-0.56 -1.42,-0.74 -1.33,-0.91 -1.20,-1.05 -1.07,-1.20 -0.91,-1.31 -0.75,-1.42 -0.57,-1.49 -0.39,-1.56 -0.39,-1.56 L -0.39,-1.56 Z"></path></g><g transform="translate(186.09679357357862 153.74908657368792) rotate(0 -3.3497503186725908 6.141208917566473)" stroke="none"><path fill="#1e1e1e" d="M 1.60,0.13 Q 1.60,0.13 1.37,1.40 1.14,2.68 0.86,3.77 0.59,4.86 -0.13,6.52 -0.86,8.19 -1.78,9.50 -2.70,10.81 -4.51,12.08 -6.32,13.35 -6.51,13.45 -6.70,13.54 -6.91,13.56 -7.12,13.59 -7.33,13.55 -7.54,13.50 -7.72,13.40 -7.90,13.29 -8.04,13.13 -8.18,12.97 -8.26,12.77 -8.35,12.58 -8.36,12.36 -8.37,12.15 -8.32,11.95 -8.27,11.74 -8.15,11.56 -8.03,11.39 -7.86,11.26 -7.70,11.13 -7.50,11.05 -7.30,10.98 -7.08,10.98 -6.87,10.98 -6.67,11.04 -6.47,11.11 -6.30,11.24 -6.13,11.36 -6.00,11.54 -5.88,11.71 -5.82,11.91 -5.76,12.12 -5.77,12.33 -5.78,12.54 -5.86,12.74 -5.93,12.94 -6.07,13.10 -6.20,13.27 -6.38,13.38 -6.56,13.49 -6.77,13.54 -6.98,13.59 -7.19,13.57 -7.40,13.55 -7.60,13.46 -7.79,13.37 -7.95,13.23 -8.10,13.09 -8.20,12.90 -8.31,12.71 -8.34,12.50 -8.38,12.29 -8.35,12.08 -8.32,11.87 -8.22,11.69 -8.12,11.50 -7.97,11.35 -7.82,11.20 -7.82,11.20 -7.82,11.20 -5.90,9.63 -3.99,8.06 -3.32,6.88 -2.66,5.70 -2.11,4.07 -1.57,2.45 -1.59,1.15 -1.60,-0.13 -1.56,-0.32 -1.52,-0.51 -1.44,-0.69 -1.36,-0.86 -1.23,-1.01 -1.11,-1.16 -0.95,-1.28 -0.80,-1.39 -0.62,-1.47 -0.44,-1.55 -0.25,-1.58 -0.06,-1.61 0.13,-1.59 0.32,-1.58 0.51,-1.51 0.69,-1.45 0.85,-1.35 1.02,-1.24 1.15,-1.10 1.29,-0.96 1.38,-0.79 1.48,-0.62 1.54,-0.44 1.59,-0.25 1.60,-0.06 1.60,0.13 1.60,0.13 L 1.60,0.13 Z"></path></g><g transform="translate(215.4683852325311 122.51766570790284) rotate(0 -14.827274456498003 12.80537339424825)" stroke="none"><path fill="#1e1e1e" d="M 1.58,0.31 Q 1.58,0.31 1.30,1.26 1.03,2.22 0.40,3.89 -0.22,5.57 -1.17,7.05 -2.13,8.53 -3.08,10.28 -4.03,12.03 -4.68,12.95 -5.33,13.87 -5.95,14.77 -6.57,15.67 -7.28,16.51 -7.98,17.35 -8.93,18.16 -9.88,18.97 -10.87,19.69 -11.86,20.42 -12.95,20.97 -14.04,21.52 -14.90,22.23 -15.77,22.94 -17.32,24.08 -18.87,25.22 -20.02,25.62 -21.16,26.02 -22.72,26.49 -24.27,26.96 -27.46,26.37 -30.66,25.78 -30.76,25.59 -30.87,25.41 -30.92,25.20 -30.96,24.99 -30.94,24.78 -30.91,24.57 -30.82,24.38 -30.73,24.19 -30.59,24.03 -30.44,23.88 -30.25,23.78 -30.06,23.68 -29.85,23.65 -29.64,23.62 -29.43,23.65 -29.22,23.69 -29.04,23.79 -28.85,23.89 -28.70,24.05 -28.56,24.20 -28.47,24.39 -28.38,24.59 -28.36,24.80 -28.34,25.01 -28.39,25.22 -28.43,25.43 -28.54,25.61 -28.65,25.79 -28.82,25.92 -28.98,26.06 -29.18,26.14 -29.38,26.22 -29.59,26.23 -29.80,26.24 -30.00,26.18 -30.21,26.12 -30.38,26.00 -30.56,25.88 -30.69,25.71 -30.81,25.54 -30.88,25.34 -30.95,25.14 -30.95,24.92 -30.94,24.71 -30.88,24.51 -30.81,24.31 -30.68,24.14 -30.55,23.97 -30.37,23.85 -30.19,23.74 -29.99,23.68 -29.78,23.63 -29.57,23.64 -29.36,23.65 -29.16,23.73 -28.97,23.81 -28.80,23.95 -28.64,24.09 -28.64,24.09 -28.64,24.09 -27.53,24.01 -26.42,23.94 -25.06,23.82 -23.69,23.70 -22.22,23.27 -20.74,22.83 -19.20,21.69 -17.66,20.55 -15.65,19.26 -13.64,17.96 -12.73,17.30 -11.83,16.64 -10.45,15.30 -9.07,13.95 -7.94,12.35 -6.81,10.75 -5.77,8.86 -4.72,6.96 -3.81,5.68 -2.90,4.40 -2.35,3.02 -1.80,1.65 -1.69,0.66 -1.58,-0.31 -1.52,-0.50 -1.46,-0.68 -1.35,-0.85 -1.25,-1.01 -1.11,-1.15 -0.97,-1.28 -0.80,-1.38 -0.63,-1.48 -0.45,-1.53 -0.26,-1.59 -0.07,-1.60 0.12,-1.60 0.31,-1.57 0.50,-1.53 0.68,-1.45 0.85,-1.36 1.00,-1.24 1.15,-1.12 1.27,-0.96 1.39,-0.81 1.47,-0.63 1.54,-0.45 1.58,-0.26 1.61,-0.07 1.59,0.12 1.58,0.31 1.58,0.31 L 1.58,0.31 Z"></path></g><g transform="translate(188.50970440253474 139.36684122665054) rotate(0 -1.3479340414997978 3.032851593374602)" stroke="none"><path fill="#1e1e1e" d="M 1.14,1.14 Q 1.14,1.14 0.36,1.91 -0.41,2.68 -1.09,4.23 -1.78,5.79 -1.65,5.96 -1.52,6.13 -1.46,6.33 -1.39,6.53 -1.39,6.75 -1.40,6.96 -1.47,7.16 -1.54,7.36 -1.67,7.53 -1.80,7.70 -1.97,7.81 -2.15,7.93 -2.36,7.99 -2.56,8.04 -2.77,8.03 -2.99,8.01 -3.18,7.93 -3.38,7.85 -3.54,7.71 -3.70,7.58 -3.81,7.39 -3.92,7.21 -3.96,7.00 -4.00,6.79 -3.98,6.58 -3.95,6.37 -3.86,6.18 -3.77,5.99 -3.62,5.83 -3.48,5.68 -3.29,5.58 -3.10,5.49 -2.89,5.45 -2.68,5.42 -2.47,5.46 -2.26,5.49 -2.07,5.60 -1.89,5.70 -1.74,5.85 -1.60,6.01 -1.51,6.20 -1.42,6.40 -1.40,6.61 -1.38,6.82 -1.43,7.03 -1.48,7.23 -1.59,7.41 -1.70,7.59 -1.86,7.73 -2.02,7.87 -2.22,7.94 -2.42,8.02 -2.63,8.03 -2.85,8.04 -3.05,7.98 -3.25,7.92 -3.43,7.80 -3.60,7.68 -3.60,7.68 -3.60,7.68 -3.14,4.05 -2.68,0.41 -1.91,-0.36 -1.14,-1.14 -0.98,-1.26 -0.83,-1.38 -0.65,-1.46 -0.48,-1.54 -0.28,-1.57 -0.09,-1.61 0.09,-1.59 0.29,-1.58 0.47,-1.52 0.66,-1.47 0.82,-1.37 0.99,-1.27 1.13,-1.13 1.27,-0.99 1.37,-0.82 1.47,-0.66 1.52,-0.47 1.58,-0.29 1.59,-0.09 1.61,0.09 1.57,0.28 1.54,0.48 1.46,0.65 1.38,0.83 1.26,0.98 1.14,1.14 1.14,1.14 L 1.14,1.14 Z"></path></g><g transform="translate(177.72623207053618 125.21353379090243) rotate(0 5.728719676374226 7.076653717874052)" stroke="none"><path fill="#1e1e1e" d="M 1.27,-0.99 Q 1.27,-0.99 2.63,0.75 3.98,2.49 5.15,4.01 6.32,5.53 7.40,6.94 8.48,8.36 9.29,9.32 10.10,10.28 11.06,11.99 12.01,13.70 12.05,13.91 12.09,14.12 12.06,14.33 12.03,14.54 11.94,14.73 11.84,14.92 11.69,15.07 11.54,15.22 11.35,15.31 11.15,15.41 10.94,15.43 10.73,15.46 10.52,15.42 10.32,15.38 10.13,15.27 9.95,15.17 9.81,15.01 9.67,14.85 9.58,14.65 9.50,14.46 9.49,14.24 9.47,14.03 9.52,13.83 9.58,13.62 9.69,13.44 9.81,13.26 9.97,13.13 10.14,13.00 10.34,12.93 10.54,12.86 10.75,12.85 10.97,12.85 11.17,12.91 11.37,12.98 11.54,13.10 11.71,13.23 11.84,13.40 11.96,13.57 12.02,13.78 12.08,13.98 12.07,14.19 12.07,14.41 11.99,14.60 11.92,14.80 11.78,14.97 11.65,15.13 11.47,15.25 11.29,15.36 11.08,15.41 10.87,15.46 10.66,15.44 10.45,15.42 10.26,15.33 10.06,15.25 9.91,15.11 9.75,14.96 9.65,14.78 9.54,14.59 9.54,14.59 9.54,14.59 8.58,13.49 7.61,12.40 6.73,11.37 5.86,10.35 4.79,8.93 3.73,7.50 2.58,5.99 1.43,4.48 0.08,2.73 -1.27,0.99 -1.37,0.82 -1.47,0.65 -1.53,0.47 -1.58,0.28 -1.59,0.09 -1.61,-0.10 -1.57,-0.29 -1.53,-0.48 -1.45,-0.66 -1.37,-0.83 -1.25,-0.99 -1.13,-1.14 -0.98,-1.26 -0.83,-1.38 -0.65,-1.46 -0.47,-1.54 -0.28,-1.57 -0.09,-1.61 0.10,-1.59 0.29,-1.58 0.48,-1.52 0.66,-1.46 0.83,-1.36 1.00,-1.26 1.13,-1.12 1.27,-0.99 1.27,-0.99 L 1.27,-0.99 Z"></path></g><g transform="translate(178.40019909128614 124.53956677015253) rotate(0 10.446488821623547 -8.42458775937385)" stroke="none"><path fill="#1e1e1e" d="M -1.22,-1.05 Q -1.22,-1.05 -0.04,-2.39 1.13,-3.73 2.86,-5.33 4.58,-6.93 6.94,-8.46 9.30,-9.99 11.01,-11.17 12.72,-12.34 14.44,-13.46 16.16,-14.57 17.30,-15.22 18.45,-15.87 19.47,-16.74 20.50,-17.61 20.65,-17.76 20.80,-17.91 20.99,-18.01 21.18,-18.10 21.39,-18.13 21.60,-18.16 21.81,-18.12 22.01,-18.08 22.20,-17.97 22.38,-17.87 22.53,-17.71 22.67,-17.55 22.75,-17.36 22.84,-17.16 22.85,-16.95 22.87,-16.74 22.82,-16.53 22.77,-16.33 22.65,-16.15 22.54,-15.97 22.37,-15.83 22.21,-15.70 22.01,-15.63 21.81,-15.55 21.60,-15.55 21.38,-15.54 21.18,-15.61 20.98,-15.67 20.81,-15.79 20.63,-15.92 20.51,-16.09 20.39,-16.26 20.32,-16.46 20.26,-16.67 20.27,-16.88 20.27,-17.09 20.35,-17.29 20.42,-17.49 20.55,-17.66 20.68,-17.82 20.86,-17.94 21.04,-18.05 21.25,-18.10 21.46,-18.15 21.67,-18.14 21.88,-18.12 22.07,-18.03 22.27,-17.95 22.43,-17.81 22.59,-17.67 22.69,-17.48 22.79,-17.30 22.83,-17.09 22.87,-16.88 22.85,-16.67 22.82,-16.46 22.72,-16.27 22.63,-16.08 22.63,-16.08 22.63,-16.08 21.33,-14.63 20.04,-13.18 18.96,-12.52 17.88,-11.86 16.19,-10.80 14.50,-9.74 12.74,-8.54 10.98,-7.33 8.84,-6.00 6.69,-4.66 5.10,-3.18 3.51,-1.69 2.36,-0.32 1.22,1.05 1.08,1.18 0.93,1.31 0.76,1.40 0.59,1.49 0.40,1.54 0.22,1.59 0.02,1.60 -0.16,1.60 -0.35,1.56 -0.54,1.51 -0.72,1.43 -0.89,1.34 -1.04,1.21 -1.19,1.08 -1.30,0.93 -1.41,0.77 -1.48,0.59 -1.56,0.41 -1.58,0.21 -1.61,0.02 -1.59,-0.16 -1.57,-0.36 -1.50,-0.54 -1.44,-0.72 -1.33,-0.88 -1.22,-1.05 -1.22,-1.05 L -1.22,-1.05 Z"></path></g><g transform="translate(198.6192097137834 108.36435827215473) rotate(0 5.0547526556242985 7.4136372282490015)" stroke="none"><path fill="#1e1e1e" d="M 1.31,-0.93 Q 1.31,-0.93 2.30,0.40 3.29,1.74 4.24,2.84 5.18,3.94 6.07,5.30 6.96,6.65 7.67,7.77 8.38,8.90 9.08,9.96 9.77,11.02 10.15,12.22 10.53,13.42 10.60,13.57 10.67,13.71 10.70,13.86 10.74,14.02 10.73,14.17 10.73,14.33 10.69,14.49 10.65,14.64 10.57,14.78 10.50,14.92 10.39,15.03 10.28,15.15 10.15,15.24 10.02,15.32 9.87,15.38 9.72,15.43 9.56,15.45 9.40,15.46 9.25,15.44 9.09,15.42 8.94,15.36 8.80,15.30 8.67,15.21 8.54,15.11 8.44,14.99 8.33,14.87 8.59,15.10 8.85,15.33 8.68,15.20 8.50,15.08 8.38,14.91 8.26,14.74 8.19,14.53 8.13,14.33 8.13,14.12 8.14,13.90 8.21,13.70 8.29,13.51 8.42,13.34 8.55,13.17 8.73,13.06 8.91,12.94 9.11,12.89 9.32,12.84 9.53,12.86 9.74,12.87 9.94,12.96 10.13,13.04 10.29,13.18 10.45,13.32 10.56,13.51 10.66,13.69 10.70,13.90 10.74,14.11 10.72,14.32 10.69,14.53 10.59,14.72 10.50,14.91 10.35,15.06 10.20,15.21 10.01,15.31 9.82,15.40 9.61,15.43 9.40,15.46 9.19,15.42 8.98,15.38 8.80,15.28 8.61,15.17 8.47,15.02 8.33,14.86 8.24,14.66 8.16,14.47 8.14,14.26 8.12,14.05 8.17,13.84 8.22,13.63 8.34,13.45 8.45,13.27 8.62,13.14 8.78,13.01 8.98,12.93 9.18,12.86 9.39,12.85 9.60,12.85 10.07,13.14 10.53,13.42 10.60,13.57 10.67,13.71 10.70,13.86 10.74,14.02 10.73,14.17 10.73,14.33 10.69,14.49 10.65,14.64 10.57,14.78 10.50,14.92 10.39,15.03 10.28,15.15 10.15,15.24 10.02,15.32 9.87,15.38 9.72,15.43 9.56,15.45 9.40,15.46 9.25,15.44 9.09,15.42 8.94,15.36 8.80,15.30 8.67,15.21 8.54,15.11 8.44,14.99 8.33,14.87 7.68,13.84 7.02,12.81 6.32,11.75 5.62,10.70 4.87,9.58 4.12,8.46 3.39,7.28 2.65,6.10 1.62,4.89 0.58,3.68 -0.36,2.31 -1.31,0.93 -1.40,0.76 -1.49,0.59 -1.54,0.40 -1.59,0.22 -1.60,0.02 -1.60,-0.16 -1.56,-0.35 -1.51,-0.54 -1.43,-0.72 -1.34,-0.89 -1.21,-1.04 -1.08,-1.19 -0.93,-1.30 -0.77,-1.41 -0.59,-1.48 -0.41,-1.56 -0.21,-1.58 -0.02,-1.61 0.16,-1.59 0.36,-1.57 0.54,-1.50 0.72,-1.44 0.88,-1.33 1.05,-1.22 1.18,-1.08 1.31,-0.93 1.31,-0.93 L 1.31,-0.93 Z"></path></g><g transform="translate(213.44648417028134 121.16973166640298) rotate(0 -3.369835103749523 0.6739670207499273)" stroke="none"><path fill="#1e1e1e" d="M 0,1.61 Q 0,1.61 -1.35,1.67 -2.70,1.73 -4.44,2.14 -6.19,2.54 -6.39,2.59 -6.60,2.65 -6.81,2.64 -7.02,2.62 -7.22,2.54 -7.42,2.47 -7.58,2.33 -7.74,2.19 -7.85,2.01 -7.96,1.82 -8.00,1.62 -8.05,1.41 -8.02,1.20 -8.00,0.99 -7.91,0.79 -7.82,0.60 -7.67,0.45 -7.52,0.29 -7.34,0.20 -7.15,0.10 -6.94,0.06 -6.73,0.03 -6.52,0.06 -6.31,0.10 -6.12,0.20 -5.94,0.30 -5.79,0.46 -5.64,0.61 -5.56,0.80 -5.47,1.00 -5.45,1.21 -5.42,1.42 -5.47,1.63 -5.52,1.83 -5.63,2.02 -5.74,2.20 -5.90,2.33 -6.06,2.47 -6.26,2.55 -6.46,2.63 -6.67,2.64 -6.88,2.65 -7.09,2.59 -7.29,2.53 -7.47,2.41 -7.64,2.29 -7.77,2.12 -7.90,1.95 -7.96,1.75 -8.03,1.55 -8.03,1.34 -8.03,1.12 -7.96,0.92 -7.89,0.72 -7.76,0.55 -7.63,0.39 -7.46,0.27 -7.28,0.15 -7.28,0.15 -7.28,0.15 -5.00,-0.79 -2.71,-1.73 -1.35,-1.67 0,-1.61 0.19,-1.59 0.38,-1.56 0.56,-1.49 0.75,-1.42 0.91,-1.31 1.07,-1.20 1.19,-1.06 1.32,-0.91 1.41,-0.74 1.50,-0.57 1.55,-0.38 1.60,-0.19 1.60,0.00 1.60,0.19 1.55,0.38 1.50,0.57 1.41,0.74 1.32,0.91 1.19,1.06 1.07,1.20 0.91,1.31 0.74,1.42 0.56,1.49 0.38,1.56 0.19,1.59 -0.00,1.61 -0.00,1.61 L 0,1.61 Z"></path></g><g transform="translate(181.09606717428574 125.21353379090243) rotate(0 16.1752084979978 6.402686697124182)" stroke="none"><path fill="#1e1e1e" d="M -1.49,-0.59 Q -1.49,-0.59 -0.98,-1.51 -0.46,-2.43 -0.32,-3.04 -0.17,-3.66 -0.11,-3.82 -0.04,-3.99 0.06,-4.13 0.16,-4.27 0.30,-4.39 0.43,-4.50 0.59,-4.58 0.75,-4.66 0.92,-4.70 1.10,-4.74 1.27,-4.73 1.45,-4.73 1.62,-4.68 1.80,-4.64 1.95,-4.55 2.11,-4.46 2.24,-4.34 2.37,-4.22 2.46,-4.07 2.56,-3.92 2.62,-3.76 2.68,-3.59 2.70,-3.41 2.71,-3.24 2.69,-3.06 2.66,-2.88 2.52,-1.81 2.38,-0.73 2.08,1.01 1.79,2.76 1.86,3.70 1.93,4.64 1.89,4.81 1.85,4.99 1.76,5.15 1.68,5.31 1.56,5.45 1.44,5.58 1.30,5.69 1.15,5.79 0.98,5.86 0.81,5.92 0.63,5.94 0.45,5.97 0.27,5.95 0.10,5.93 -0.06,5.86 -0.23,5.80 -0.38,5.70 -0.53,5.60 -0.65,5.46 -0.77,5.33 -0.86,5.17 -0.94,5.01 -0.99,4.84 -1.03,4.66 -1.03,4.48 -1.03,4.30 -0.22,2.40 0.58,0.50 1.39,-1.19 2.20,-2.89 2.91,-4.55 3.63,-6.20 4.40,-7.28 5.16,-8.35 6.59,-9.08 8.01,-9.82 8.57,-8.12 9.12,-6.42 8.88,-4.88 8.65,-3.34 8.13,-1.78 7.61,-0.23 7.23,1.27 6.86,2.78 6.98,0.14 7.10,-2.48 7.98,-4.48 8.86,-6.47 9.43,-7.69 9.99,-8.91 10.30,-9.66 10.60,-10.40 10.67,-10.56 10.75,-10.72 10.86,-10.86 10.97,-10.99 11.11,-11.10 11.25,-11.20 11.41,-11.27 11.57,-11.34 11.74,-11.37 11.92,-11.40 12.09,-11.38 12.27,-11.37 12.43,-11.32 12.60,-11.26 12.75,-11.17 12.90,-11.07 13.02,-10.95 13.14,-10.82 13.23,-10.67 13.32,-10.52 13.36,-10.35 13.41,-10.18 13.42,-10.01 13.43,-9.83 13.39,-9.66 13.36,-9.49 12.99,-7.99 12.62,-6.49 12.33,-4.77 12.05,-3.05 11.30,-0.47 10.55,2.09 10.04,4.45 9.54,6.81 8.96,7.76 8.37,8.71 9.28,5.80 10.18,2.89 11.11,0.38 12.04,-2.12 12.83,-4.35 13.62,-6.59 14.15,-7.97 14.68,-9.35 15.08,-9.92 15.48,-10.49 15.57,-10.65 15.66,-10.82 15.78,-10.95 15.91,-11.09 16.06,-11.19 16.21,-11.29 16.38,-11.35 16.55,-11.42 16.74,-11.44 16.92,-11.46 17.10,-11.43 17.28,-11.41 17.45,-11.34 17.62,-11.27 17.77,-11.16 17.92,-11.06 18.04,-10.92 18.16,-10.78 18.24,-10.62 18.33,-10.45 18.37,-10.28 18.41,-10.10 18.41,-9.91 18.41,-9.73 18.36,-9.55 18.31,-9.37 17.97,-7.78 17.63,-6.18 17.09,-4.10 16.55,-2.02 15.92,0.23 15.29,2.49 14.64,4.99 13.99,7.48 13.51,9.49 13.04,11.50 12.84,12.76 12.65,14.01 12.58,14.19 12.51,14.37 12.41,14.54 12.30,14.70 12.15,14.83 12.01,14.96 11.84,15.05 11.67,15.15 11.48,15.19 11.29,15.24 11.10,15.25 10.90,15.25 10.71,15.21 10.52,15.16 10.35,15.07 10.18,14.99 10.03,14.86 9.88,14.73 9.77,14.57 9.66,14.42 9.59,14.23 9.51,14.05 9.49,13.86 9.46,13.67 9.48,13.47 9.50,13.28 10.37,12.65 11.23,12.02 11.58,10.86 11.93,9.69 12.55,7.59 13.17,5.49 14.04,2.99 14.91,0.49 15.68,-1.36 16.46,-3.22 16.84,-4.38 17.21,-5.54 17.29,-5.71 17.37,-5.88 17.49,-6.02 17.60,-6.16 17.75,-6.27 17.90,-6.38 18.06,-6.46 18.23,-6.53 18.42,-6.56 18.60,-6.59 18.78,-6.58 18.96,-6.56 19.14,-6.51 19.31,-6.45 19.47,-6.35 19.63,-6.25 19.76,-6.12 19.88,-5.99 19.98,-5.83 20.07,-5.67 20.12,-5.49 20.17,-5.32 20.18,-5.13 20.19,-4.95 20.15,-4.77 20.12,-4.59 19.36,-2.25 18.60,0.07 17.77,2.14 16.94,4.22 16.01,7.01 15.08,9.80 13.87,12.44 12.66,15.09 11.58,17.36 10.50,19.62 10.04,20.97 9.59,22.32 9.48,22.48 9.37,22.65 9.23,22.79 9.08,22.93 8.91,23.03 8.73,23.13 8.54,23.18 8.35,23.24 8.15,23.25 7.95,23.25 7.75,23.21 7.55,23.17 7.37,23.08 7.19,23.00 7.04,22.87 6.88,22.74 6.76,22.58 6.64,22.42 6.57,22.24 6.49,22.05 6.46,21.85 6.43,21.66 6.44,21.46 6.46,21.26 6.52,21.07 6.59,20.88 7.29,19.77 7.99,18.67 9.18,16.03 10.38,13.38 11.65,10.35 12.92,7.31 14.06,5.00 15.20,2.69 16.43,1.09 17.65,-0.50 17.46,-0.34 17.27,-0.19 17.39,-0.33 17.52,-0.48 17.67,-0.60 17.82,-0.71 18.00,-0.78 18.18,-0.86 18.36,-0.89 18.55,-0.92 18.74,-0.90 18.94,-0.88 19.12,-0.82 19.30,-0.76 19.46,-0.66 19.62,-0.56 19.75,-0.42 19.88,-0.28 19.98,-0.11 20.07,0.04 20.13,0.23 20.18,0.41 20.18,0.60 20.19,0.79 20.15,0.98 20.11,1.17 20.03,1.34 19.95,1.51 18.74,4.17 17.53,6.83 16.83,9.04 16.14,11.25 15.44,13.23 14.74,15.20 14.47,16.34 14.21,17.47 14.07,17.79 13.93,18.11 13.86,18.30 13.79,18.48 13.67,18.65 13.56,18.81 13.41,18.95 13.26,19.08 13.08,19.17 12.91,19.27 12.71,19.32 12.52,19.36 12.32,19.37 12.12,19.37 11.92,19.32 11.73,19.27 11.55,19.18 11.37,19.09 11.22,18.95 11.07,18.82 10.96,18.66 10.84,18.49 10.77,18.30 10.70,18.12 10.67,17.92 10.65,17.72 10.67,17.52 10.70,17.32 11.49,16.45 12.28,15.57 13.18,14.24 14.09,12.91 15.26,10.42 16.43,7.93 17.75,5.62 19.08,3.31 20.02,1.74 20.95,0.17 21.51,-0.69 22.07,-1.56 22.18,-1.70 22.30,-1.85 22.44,-1.96 22.59,-2.08 22.76,-2.15 22.93,-2.23 23.11,-2.26 23.29,-2.29 23.48,-2.28 23.66,-2.27 23.84,-2.22 24.02,-2.16 24.17,-2.07 24.33,-1.97 24.46,-1.84 24.59,-1.71 24.69,-1.55 24.79,-1.39 24.84,-1.21 24.90,-1.04 24.91,-0.85 24.92,-0.67 24.89,-0.49 24.85,-0.30 24.78,-0.13 24.70,0.03 24.33,1.45 23.95,2.88 22.99,4.96 22.02,7.04 21.04,9.46 20.05,11.89 19.22,13.72 18.39,15.56 19.28,13.06 20.18,10.57 21.16,8.55 22.13,6.53 23.11,4.45 24.10,2.37 24.95,1.02 25.80,-0.32 26.08,-0.71 26.36,-1.09 26.49,-1.25 26.62,-1.40 26.79,-1.53 26.95,-1.65 27.14,-1.73 27.33,-1.81 27.53,-1.84 27.74,-1.87 27.94,-1.85 28.15,-1.83 28.34,-1.76 28.54,-1.69 28.71,-1.58 28.88,-1.47 29.02,-1.32 29.16,-1.17 29.26,-0.99 29.36,-0.81 29.42,-0.62 29.47,-0.42 29.48,-0.21 29.49,-0.01 29.44,0.18 29.40,0.39 29.31,0.57 29.22,0.75 28.44,3.16 27.66,5.57 27.00,7.43 26.33,9.29 25.84,10.66 25.34,12.03 25.19,12.86 25.05,13.69 24.97,13.88 24.90,14.07 24.78,14.24 24.67,14.40 24.51,14.53 24.36,14.66 24.18,14.76 24.00,14.85 23.80,14.89 23.60,14.94 23.40,14.94 23.20,14.93 23.00,14.88 22.81,14.83 22.63,14.73 22.45,14.64 22.30,14.50 22.15,14.36 22.04,14.20 21.93,14.03 21.86,13.84 21.79,13.65 21.77,13.45 21.75,13.25 21.78,13.04 21.80,12.84 22.62,11.80 23.44,10.76 24.24,9.45 25.05,8.14 25.99,6.39 26.94,4.64 27.71,2.95 28.48,1.26 29.02,0.25 29.57,-0.74 29.96,-1.15 30.34,-1.55 30.45,-1.71 30.57,-1.86 30.72,-1.98 30.86,-2.11 31.04,-2.19 31.21,-2.27 31.40,-2.31 31.59,-2.35 31.78,-2.35 31.97,-2.34 32.16,-2.29 32.34,-2.23 32.51,-2.14 32.68,-2.04 32.82,-1.91 32.96,-1.78 33.06,-1.62 33.17,-1.45 33.23,-1.27 33.29,-1.09 33.31,-0.90 33.32,-0.70 33.29,-0.51 33.27,-0.32 33.19,-0.15 33.12,0.02 31.96,3.02 30.80,6.03 30.67,6.19 30.53,6.36 30.36,6.47 30.18,6.59 29.97,6.64 29.77,6.69 29.55,6.68 29.34,6.66 29.15,6.58 28.95,6.50 28.79,6.36 28.63,6.22 28.53,6.03 28.42,5.85 28.38,5.64 28.34,5.43 28.36,5.22 28.39,5.01 28.48,4.82 28.58,4.63 28.73,4.48 28.88,4.33 29.07,4.23 29.26,4.13 29.47,4.10 29.68,4.07 29.89,4.11 30.09,4.15 30.28,4.25 30.47,4.36 30.61,4.51 30.75,4.67 30.84,4.87 30.92,5.06 30.94,5.27 30.96,5.48 30.91,5.69 30.86,5.90 30.75,6.08 30.63,6.26 30.47,6.39 30.30,6.53 30.10,6.60 29.91,6.67 29.69,6.68 29.48,6.69 29.28,6.63 29.07,6.57 28.90,6.44 28.73,6.32 28.60,6.15 28.48,5.98 28.41,5.78 28.35,5.57 28.35,5.36 28.36,5.15 28.43,4.95 28.50,4.75 28.50,4.75 28.50,4.75 29.14,2.78 29.77,0.80 30.06,-0.37 30.34,-1.55 30.45,-1.71 30.57,-1.86 30.72,-1.98 30.86,-2.11 31.04,-2.19 31.21,-2.27 31.40,-2.31 31.59,-2.35 31.78,-2.35 31.97,-2.34 32.16,-2.29 32.34,-2.23 32.51,-2.14 32.68,-2.04 32.82,-1.91 32.96,-1.78 33.06,-1.62 33.17,-1.45 33.23,-1.27 33.29,-1.09 33.31,-0.90 33.32,-0.70 33.29,-0.51 33.27,-0.32 33.19,-0.15 33.12,0.02 32.15,1.26 31.19,2.49 30.38,4.26 29.58,6.03 28.64,7.85 27.70,9.67 26.38,11.68 25.05,13.69 24.97,13.88 24.90,14.07 24.78,14.24 24.67,14.40 24.51,14.53 24.36,14.66 24.18,14.76 24.00,14.85 23.80,14.89 23.60,14.94 23.40,14.94 23.20,14.93 23.00,14.88 22.81,14.83 22.63,14.73 22.45,14.64 22.30,14.50 22.15,14.36 22.04,14.20 21.93,14.03 21.86,13.84 21.79,13.65 21.77,13.45 21.75,13.25 21.78,13.04 21.80,12.84 21.72,12.99 21.63,13.14 21.77,11.98 21.90,10.83 22.37,9.43 22.84,8.03 23.53,6.12 24.23,4.20 24.90,2.58 25.58,0.97 25.97,-0.06 26.36,-1.09 26.49,-1.25 26.62,-1.40 26.79,-1.53 26.95,-1.65 27.14,-1.73 27.33,-1.80 27.53,-1.84 27.74,-1.87 27.94,-1.85 28.15,-1.83 28.34,-1.76 28.54,-1.69 28.71,-1.58 28.88,-1.47 29.02,-1.32 29.16,-1.17 29.26,-0.99 29.36,-0.81 29.42,-0.62 29.47,-0.42 29.48,-0.21 29.49,-0.01 29.44,0.18 29.40,0.38 29.31,0.57 29.22,0.75 28.80,1.06 28.39,1.36 27.60,2.53 26.82,3.71 25.78,5.75 24.74,7.78 23.69,9.98 22.65,12.19 21.11,14.58 19.58,16.97 18.66,17.71 17.75,18.45 16.42,17.97 15.10,17.48 15.06,15.79 15.02,14.09 15.82,12.28 16.62,10.48 17.66,7.98 18.70,5.47 19.76,3.26 20.82,1.04 21.44,-0.25 22.07,-1.56 22.18,-1.70 22.30,-1.85 22.44,-1.96 22.59,-2.08 22.76,-2.15 22.93,-2.23 23.11,-2.26 23.29,-2.29 23.48,-2.28 23.66,-2.27 23.84,-2.22 24.02,-2.16 24.17,-2.07 24.33,-1.97 24.46,-1.84 24.59,-1.71 24.69,-1.55 24.79,-1.39 24.84,-1.21 24.90,-1.04 24.91,-0.85 24.92,-0.67 24.89,-0.49 24.85,-0.30 24.78,-0.13 24.70,0.02 24.08,0.86 23.46,1.69 22.52,3.21 21.59,4.73 20.35,6.95 19.11,9.17 17.88,11.87 16.65,14.56 15.29,16.34 13.93,18.11 13.86,18.30 13.79,18.48 13.67,18.65 13.56,18.81 13.41,18.95 13.26,19.08 13.08,19.17 12.91,19.27 12.71,19.32 12.52,19.36 12.32,19.37 12.12,19.37 11.92,19.32 11.73,19.27 11.55,19.18 11.37,19.09 11.22,18.95 11.07,18.82 10.96,18.66 10.84,18.49 10.77,18.30 10.70,18.12 10.67,17.92 10.65,17.72 10.67,17.52 10.70,17.32 10.81,16.99 10.92,16.67 11.25,15.37 11.58,14.08 12.27,12.16 12.96,10.24 13.72,7.85 14.47,5.45 15.31,3.65 16.15,1.85 16.71,0.83 17.27,-0.19 17.39,-0.33 17.52,-0.48 17.67,-0.60 17.82,-0.71 18.00,-0.78 18.18,-0.86 18.36,-0.89 18.55,-0.92 18.74,-0.90 18.94,-0.89 19.12,-0.82 19.30,-0.76 19.46,-0.66 19.62,-0.56 19.75,-0.42 19.88,-0.28 19.98,-0.11 20.07,0.04 20.13,0.23 20.18,0.41 20.18,0.60 20.19,0.79 20.15,0.98 20.11,1.17 20.03,1.34 19.95,1.51 19.41,1.66 18.87,1.80 18.37,2.90 17.87,4.01 16.76,6.23 15.66,8.45 14.39,11.52 13.12,14.60 11.98,17.21 10.83,19.82 10.21,21.07 9.59,22.32 9.48,22.48 9.37,22.65 9.23,22.79 9.08,22.93 8.91,23.03 8.73,23.13 8.54,23.18 8.35,23.24 8.15,23.25 7.95,23.25 7.75,23.21 7.55,23.17 7.37,23.08 7.19,23.00 7.04,22.87 6.88,22.74 6.76,22.58 6.64,22.42 6.57,22.24 6.49,22.05 6.46,21.85 6.43,21.66 6.44,21.46 6.46,21.26 6.52,21.07 6.59,20.88 7.05,19.53 7.51,18.19 8.60,15.96 9.68,13.72 10.82,11.24 11.96,8.76 12.92,5.87 13.88,2.99 14.76,0.82 15.63,-1.34 16.42,-3.44 17.21,-5.54 17.29,-5.71 17.37,-5.88 17.49,-6.02 17.60,-6.16 17.75,-6.27 17.90,-6.38 18.06,-6.46 18.23,-6.53 18.42,-6.56 18.60,-6.59 18.78,-6.58 18.96,-6.56 19.14,-6.51 19.31,-6.45 19.47,-6.35 19.63,-6.25 19.76,-6.12 19.88,-5.99 19.98,-5.83 20.07,-5.67 20.12,-5.49 20.17,-5.32 20.18,-5.13 20.19,-4.95 20.15,-4.77 20.12,-4.59 19.95,-4.37 19.79,-4.16 19.42,-3.16 19.06,-2.15 18.33,-0.36 17.60,1.42 16.76,3.86 15.92,6.31 15.26,8.55 14.60,10.79 13.62,12.40 12.65,14.01 12.58,14.19 12.51,14.37 12.41,14.54 12.30,14.70 12.15,14.83 12.01,14.96 11.84,15.05 11.67,15.15 11.48,15.19 11.29,15.24 11.10,15.25 10.90,15.25 10.71,15.21 10.52,15.16 10.35,15.07 10.18,14.99 10.03,14.86 9.88,14.73 9.77,14.57 9.66,14.42 9.59,14.23 9.51,14.05 9.49,13.86 9.46,13.67 9.48,13.47 9.50,13.28 9.71,12.03 9.91,10.78 10.38,8.72 10.85,6.66 11.50,4.14 12.15,1.62 12.77,-0.61 13.39,-2.85 13.96,-4.98 14.53,-7.11 15.00,-8.80 15.48,-10.49 15.57,-10.65 15.66,-10.82 15.78,-10.95 15.91,-11.09 16.06,-11.19 16.21,-11.29 16.38,-11.35 16.55,-11.42 16.74,-11.44 16.92,-11.46 17.10,-11.43 17.28,-11.41 17.45,-11.34 17.62,-11.27 17.77,-11.17 17.92,-11.06 18.04,-10.92 18.16,-10.78 18.24,-10.62 18.33,-10.45 18.37,-10.28 18.41,-10.10 18.41,-9.91 18.41,-9.73 18.36,-9.55 18.31,-9.38 17.87,-8.80 17.44,-8.23 16.90,-6.93 16.37,-5.62 15.57,-3.36 14.78,-1.09 13.79,1.50 12.81,4.11 11.91,6.06 11.00,8.01 10.15,9.37 9.29,10.74 8.18,10.76 7.07,10.79 6.90,8.51 6.74,6.24 7.23,3.76 7.72,1.29 8.39,-1.13 9.06,-3.56 9.38,-5.40 9.70,-7.24 10.15,-8.82 10.60,-10.40 10.67,-10.56 10.75,-10.72 10.86,-10.86 10.97,-10.99 11.11,-11.10 11.25,-11.20 11.41,-11.27 11.57,-11.34 11.74,-11.37 11.92,-11.40 12.09,-11.38 12.27,-11.37 12.43,-11.32 12.60,-11.26 12.75,-11.17 12.90,-11.07 13.02,-10.95 13.14,-10.82 13.23,-10.67 13.32,-10.52 13.36,-10.35 13.41,-10.18 13.42,-10.01 13.43,-9.83 13.39,-9.66 13.36,-9.49 12.99,-8.60 12.62,-7.71 12.07,-6.51 11.53,-5.30 10.71,-3.41 9.90,-1.52 9.23,0.40 8.57,2.34 7.84,3.70 7.11,5.06 5.54,5.25 3.97,5.43 3.86,3.71 3.75,1.99 4.18,0.36 4.61,-1.26 5.07,-2.55 5.53,-3.84 6.12,-5.58 6.71,-7.33 6.53,-6.17 6.35,-5.00 5.62,-3.31 4.89,-1.61 4.11,0.02 3.33,1.65 2.63,3.15 1.93,4.64 1.89,4.81 1.85,4.99 1.76,5.15 1.68,5.31 1.56,5.45 1.44,5.58 1.30,5.69 1.15,5.79 0.98,5.86 0.81,5.92 0.63,5.94 0.45,5.97 0.27,5.95 0.10,5.93 -0.06,5.86 -0.23,5.80 -0.38,5.70 -0.53,5.60 -0.65,5.46 -0.77,5.33 -0.86,5.17 -0.94,5.01 -0.99,4.84 -1.03,4.66 -1.03,4.48 -1.03,4.30 -1.12,4.34 -1.20,4.38 -1.16,3.27 -1.12,2.15 -0.81,0.35 -0.50,-1.44 -0.34,-2.55 -0.17,-3.66 -0.11,-3.82 -0.04,-3.99 0.06,-4.13 0.16,-4.27 0.30,-4.39 0.43,-4.50 0.59,-4.58 0.75,-4.66 0.92,-4.70 1.10,-4.74 1.27,-4.73 1.45,-4.73 1.62,-4.68 1.79,-4.64 1.95,-4.55 2.11,-4.46 2.24,-4.34 2.37,-4.22 2.46,-4.07 2.56,-3.92 2.62,-3.76 2.68,-3.59 2.70,-3.41 2.71,-3.24 2.69,-3.06 2.66,-2.88 2.34,-2.16 2.01,-1.44 1.75,-0.42 1.49,0.59 1.40,0.77 1.31,0.94 1.17,1.08 1.04,1.22 0.88,1.33 0.72,1.44 0.54,1.50 0.35,1.57 0.16,1.59 -0.02,1.61 -0.22,1.58 -0.41,1.55 -0.59,1.48 -0.77,1.41 -0.93,1.30 -1.09,1.18 -1.21,1.04 -1.34,0.89 -1.43,0.71 -1.51,0.54 -1.56,0.35 -1.60,0.16 -1.60,-0.02 -1.59,-0.22 -1.54,-0.41 -1.49,-0.59 -1.49,-0.59 L -1.49,-0.59 Z"></path></g></svg>